<?xml version="1.0" encoding="utf-8"?>
<!DOCTYPE svg PUBLIC "-//W3C//DTD SVG 1.0//EN" "http://www.w3.org/TR/2001/REC-SVG-20010904/DTD/svg10.dtd">
<svg version="1.0" xmlns="http://www.w3.org/2000/svg" width="100px" height="100px" viewBox="0 0 640 640" preserveAspectRatio="xMidYMid meet">
 <g fill="#76471c">
  <path d="M308 593.6 c0 -2 0.6 -2.4 4.6 -2.9 2.6 -0.2 5 -1.1 5.5 -1.8 1 -1.6 1 -16.8 0 -21.4 -0.4 -2.3 -1.4 -3.2 -3.8 -4 -2.1 -0.5 -3.3 -1.6 -3.3 -2.6 0 -1.5 1.7 -1.7 19.3 -1.4 25 0.4 41 -1.1 64.5 -6.1 2.8 -0.6 3.2 -0.4 3.2 1.3 0 1.6 -1.1 2.3 -4.7 3.3 -2.7 0.7 -5.4 2 -6 2.8 -0.8 1 -1.3 4.8 -1.3 10.4 0 5.2 -0.4 8.8 -1 8.8 -0.5 0 -1 0.4 -1 0.9 0 0.5 2.9 0.6 6.5 0.3 6.4 -0.5 6.5 -0.4 6.5 2.1 0 2.4 -0.5 2.6 -12.7 5.5 -21.8 5.2 -39 7.2 -61.3 7.2 l-15 0 0 -2.4z"/>
  <path d="M327 539.4 c-2.5 -2 -6.9 -5.8 -9.7 -8.5 -4.5 -4.1 -5.3 -5.4 -5.3 -8.4 0 -4.3 2 -4.7 4.5 -0.9 0.9 1.4 5 6.1 9 10.3 5.2 5.4 7.1 8.1 6.6 9.3 -0.5 1.5 -1.2 1.3 -5.1 -1.8z"/>
  <path d="M342 525.7 c-7.9 -6.8 -8.5 -7.6 -8.8 -11.5 -0.4 -5.3 1.3 -5.5 5.1 -0.4 1.6 2 5.3 6.2 8.3 9.4 4.4 4.5 5.3 6 4.6 7.7 -0.7 2 -1.4 1.6 -9.2 -5.2z"/>
  <path d="M333.5 377.4 c1 -7.6 1.4 -67 0.6 -74.6 l-0.7 -5.7 7.4 -7.3 c11 -10.7 19.1 -20.5 24.2 -29.2 2.5 -4.2 4.8 -7.6 5.2 -7.6 0.9 0 1.1 5.2 0.2 7.4 -0.3 0.9 -1.2 1.6 -2 1.6 -0.8 0 -1.4 1 -1.4 2.3 0 1.2 -0.8 3.4 -1.7 4.7 -1.6 2.3 -1.8 6.8 -2.1 52.6 -0.4 50.1 -0.4 50.1 1.7 50.7 1.4 0.3 2.1 1.3 2.1 3 0 2.3 -0.3 2.4 -9.2 3 -8.5 0.6 -18.4 2.5 -23.2 4.3 -1.8 0.7 -1.9 0.4 -1.1 -5.2z"/>
  <path d="M243.3 360.3 c-0.7 -0.2 -1.3 -1.6 -1.3 -3 0 -4.3 16.4 -21.2 18.6 -19.1 0.3 0.4 -2.4 4.6 -6 9.5 -8.9 12.1 -9.9 13.2 -11.3 12.6z"/>
  <path d="M300.3 265.3 c-1.6 -0.3 -2.3 -1.1 -2.3 -2.8 0 -1.3 0.5 -2.5 1 -2.7 0.6 -0.2 1.8 -6.3 2.8 -13.7 l1.7 -13.4 5.3 -2.5 c3.9 -1.8 5.1 -2.7 4.3 -3.5 -0.6 -0.6 -5.7 -3.2 -11.4 -5.7 l-10.2 -4.6 0.3 -4.4 c0.2 -2.5 0.8 -4.8 1.4 -5.1 0.9 -0.6 2.9 -20.6 2.5 -25.9 l-0.2 -2.5 12 0.3 c6.5 0.1 13.4 0.6 15.2 1.1 4.1 1.2 4.9 0.1 2.8 -3.9 -1.4 -2.8 -1.4 -4.2 0.5 -17.7 1.1 -8.1 2 -17.4 2 -20.6 l0 -5.9 5.7 3.2 c9.1 5.2 17.1 11.4 15.1 11.8 -2 0.4 -2.3 1.2 -3.8 12.2 -0.6 4.7 -1.3 9.3 -1.5 10.2 -0.2 1 0.8 2.8 2.1 4 2.1 2 3.4 7.8 1.8 7.8 -0.3 0 -2.6 -1.2 -5 -2.6 -2.5 -1.5 -4.8 -2.4 -5.1 -2 -0.4 0.3 0.9 2.5 2.7 4.7 l3.3 4.2 -5.4 -0.8 c-7.6 -1.1 -17.1 -0.8 -17.9 0.6 -1.7 2.7 -5.2 30.6 -4.4 34.7 0.4 1.6 2.2 3.8 4.6 5.5 l4 2.8 -0.5 6.2 c-0.3 3.4 -1 10.4 -1.7 15.5 -0.6 5.2 -1 9.6 -0.7 9.9 0.3 0.2 2.4 0.7 4.6 1 3 0.4 4.1 1 4.1 2.3 0 1 -1 2 -2.2 2.4 -2.5 0.6 -24 0.6 -27.5 -0.1z"/>
  <path d="M512.3 231.4 c-3.4 -1.9 -6.5 -4 -6.9 -4.5 -0.3 -0.6 -1.5 -5 -2.5 -9.7 -8.4 -37.9 -11 -50.7 -10.7 -52.9 l0.3 -2.5 6.5 4.4 c3.6 2.4 6.4 4.9 6.2 5.6 -0.1 0.7 1.3 8.3 3.2 17 1.9 8.6 4.2 19.8 5.1 24.7 1 5 2.6 10.6 3.7 12.6 1.1 1.9 1.8 4.7 1.6 6.2 l-0.3 2.6 -6.2 -3.5z"/>
  <path d="M430.1 196 c-0.6 -2.8 -1.4 -8.1 -1.7 -11.8 l-0.6 -6.8 8.8 -3.8 c16.3 -7.1 30.4 -13.9 30.4 -14.7 0 -0.5 1.4 -0.9 3 -0.9 l3 0 0 7.5 c0 8.3 -1.7 17.5 -3.1 17.5 -0.6 0 -1.8 -0.4 -2.7 -0.9 -1.2 -0.6 -6 1.1 -17.2 6.3 -14 6.5 -15.5 7.4 -15.8 9.9 -0.5 4.5 -2.9 3.2 -4.1 -2.3z"/>
  <path d="M377.2 159.4 l-1.1 -3.6 2.5 2.3 c2.6 2.5 3.2 4.9 1.1 4.9 -0.8 0 -1.9 -1.6 -2.5 -3.6z"/>
  <path d="M476.5 144.1 c-5.8 -3.8 -8.2 -4.3 -7.1 -1.5 0.3 0.9 -0.2 1.4 -1.4 1.4 -1.5 0 -2 -0.7 -2 -2.9 0 -4.6 1 -6.1 4 -6.1 1.5 0 12.1 -1.6 23.6 -3.6 11.5 -1.9 25.2 -4.2 30.4 -5 5.2 -0.8 10.3 -1.9 11.2 -2.4 1.4 -0.8 3.2 0.5 9.5 6.5 l7.8 7.4 -8.5 -0.2 c-6.3 -0.1 -15 0.9 -34 4.2 -14 2.4 -25.6 4.8 -25.8 5.3 -0.6 1.3 -1.5 1 -7.7 -3.1z"/>
  <path d="M389.5 101.4 c-3.8 -0.7 -13.9 -1.9 -22.2 -2.6 -13.6 -1.1 -15.3 -1.4 -15.3 -3 0 -1 0.5 -2.7 1.2 -3.7 0.9 -1.5 0.9 -2.5 0 -4.6 -2.6 -5.8 -2.4 -5.9 11.1 -5.1 18.6 1 34.7 3.8 34.7 6.2 0 1 -1.4 1.4 -5.6 1.4 -5.1 0 -5.5 0.2 -5.2 2.2 0.2 1.7 1.5 2.6 5.1 3.7 4.1 1.3 4.7 1.8 4.7 4.3 0 1.5 -0.3 2.7 -0.7 2.7 -0.5 -0.1 -3.9 -0.8 -7.8 -1.5z"/>
 </g>
 <g fill="#7e501f">
  <path d="M304.8 595.3 c-2.2 -0.3 -2.8 -1 -2.8 -2.9 0 -1.5 0.6 -2.4 1.5 -2.4 1.3 0 1.5 -2 1.5 -12.4 0 -12.8 -0.8 -15.6 -4.6 -15.6 -0.8 0 -1.4 -1 -1.4 -2.1 0 -2.1 0.3 -2.1 7.2 -1.5 10.7 1.1 14.2 2.5 14.9 6.1 0.9 4.2 1 25.8 0.1 27.1 -0.4 0.6 -1.7 1.4 -2.9 1.8 -1.3 0.4 -2.3 1.2 -2.3 1.7 0 1.4 -3.8 1.1 -4.3 -0.3 -0.4 -1 -0.6 -1 -0.6 0 -0.1 1.2 -1.1 1.3 -6.3 0.5z"/>
  <path d="M380.6 581.8 c0.4 -2.4 1.1 -4.4 1.6 -4.6 0.4 -0.2 0.8 -4.3 0.8 -9.1 0 -5.5 0.5 -9.3 1.3 -10.2 0.6 -0.9 7.5 -3.5 15.2 -5.8 7.7 -2.4 18.9 -6.3 24.8 -8.7 5.9 -2.4 11 -4.4 11.2 -4.4 0.3 0 0.5 1.1 0.5 2.5 0 2 -0.5 2.5 -2.5 2.5 -1.4 0 -2.5 0.5 -2.5 1 0 0.6 -0.6 1 -1.4 1 -0.7 0 -2.5 0.9 -3.9 2 -1.4 1.1 -3.2 2 -4.1 2 -1.3 0 -1.6 1.2 -1.6 6 0 5.7 -0.1 6 -2.5 6 -2.6 0 -3.2 1.9 -1.9 6.8 0.6 1.9 1.3 2.2 5.5 2.2 5.3 0 6.3 -0.9 2.7 -2.5 -1.9 -0.8 -2.4 -1.9 -2.6 -6.1 -0.3 -4.6 0 -5.4 2.4 -7.3 1.5 -1.2 3.5 -2.1 4.5 -2.1 1.1 0 1.9 -0.7 1.9 -1.6 0 -1.2 0.9 -1.4 3.8 -1.2 3.5 0.3 3.7 0.5 4 4.1 0.3 3.3 0.1 3.7 -2.1 3.7 -1.6 0 -2.8 0.8 -3.5 2.5 -1.5 3.3 -1.5 3.5 0.4 3.5 1.8 0 4.3 2.7 4.4 4.8 0 3 -41.5 18.7 -43 16.2 -0.6 -0.9 -1.9 -1 -5.9 -0.1 -8.2 1.7 -8.2 1.7 -7.5 -3.1z"/>
  <path d="M333.9 544.5 c-4.5 -3.2 -7 -7.5 -4.5 -7.5 1.7 0 11 9.6 9.9 10.3 -0.5 0.3 -2.9 -1 -5.4 -2.8z"/>
  <path d="M352.2 533.8 c-2.5 -1.7 -4.2 -3.7 -4.2 -4.9 0 -2.9 1.7 -2.3 6.7 2.4 5.6 5.3 4 7 -2.5 2.5z"/>
  <path d="M312.3 526.3 c-2 -3.1 -1.9 -8.3 0.1 -8.3 1.8 0 3.2 2 3.3 4.5 0.1 1.1 0.2 2.5 0.3 3 0.9 4.2 -1.2 4.6 -3.7 0.8z"/>
  <path d="M333.6 518.1 c-2 -2.3 -2.2 -9.1 -0.2 -9.1 2 0 2.7 1.4 3.2 6 0.5 4.5 -0.6 5.7 -3 3.1z"/>
  <path d="M328.5 380.9 c1.3 -7.6 1.7 -78.2 0.4 -78.9 -0.6 -0.4 0.6 -2 3.1 -4 2.2 -1.8 4.4 -2.9 4.8 -2.5 0.9 0.9 1.1 71.1 0.3 78.8 -0.4 3.1 -0.3 5.7 0.1 5.7 2.1 0 0.4 1.7 -2.9 2.9 -2.1 0.8 -4.4 1.6 -5.2 1.9 -1.1 0.4 -1.2 -0.4 -0.6 -3.9z"/>
  <path d="M369 378.3 c-2.5 -0.3 -4.9 -1.1 -5.3 -1.9 -0.4 -0.8 -1.5 -1.4 -2.3 -1.4 -1.3 0 -1.5 -6.3 -1.3 -52.5 l0.2 -52.5 2.9 -5.2 c10.4 -18.7 15.8 -33.6 18.3 -50 0.7 -4.6 3.5 -5.3 3.5 -0.9 0 4.6 -2.7 17.7 -6 28.7 l-3 10.2 0.9 19.8 c0.6 12.7 0.6 20 0 20.2 -1.9 0.7 -3.9 3.4 -3.9 5.2 0 1 1.1 2.7 2.4 3.7 2.3 1.9 2.3 2 2 17.8 -0.2 8.8 -0.6 24.4 -0.8 34.7 l-0.3 18.7 2.6 0.3 c2 0.2 2.7 0.9 2.9 3.1 0.3 2.6 0.2 2.7 -4 2.5 -2.4 -0.1 -6.3 -0.3 -8.8 -0.5z"/>
  <path d="M242.3 361.3 c-2.1 -0.8 -1.4 -5 1.3 -8 l2.6 -2.8 -0.6 3.2 c-0.3 1.9 -0.1 3.3 0.6 3.5 0.7 0.3 0.6 1.1 -0.3 2.6 -1.4 2.3 -1.6 2.4 -3.6 1.5z"/>
  <path d="M257.3 341.2 c-0.9 -0.6 -0.1 -1.9 2.7 -4.7 5 -4.9 6.3 -3.9 2 1.5 -1.7 2.2 -3.2 4 -3.3 4 -0.1 0 -0.8 -0.4 -1.4 -0.8z"/>
  <path d="M296 262.6 c0 -1.2 0.4 -3.6 0.9 -5.2 0.5 -1.6 1.5 -7.5 2.1 -13.1 1.2 -9.8 1.3 -10.2 4.1 -11.4 1.6 -0.6 3.2 -1 3.4 -0.7 1.1 1 -3.5 30 -4.9 31.4 -2.4 2.3 -5.6 1.8 -5.6 -1z"/>
  <path d="M323.1 263.9 c-2.5 -0.5 -4.7 -1.3 -5.1 -1.9 -0.6 -0.9 1.2 -19.7 2.6 -26.9 0.6 -3.1 0.3 -3.8 -2.6 -6.3 -1.8 -1.5 -3.7 -2.5 -4.2 -2.2 -0.4 0.3 -0.8 -0.4 -0.8 -1.6 0 -1.2 -0.5 -3 -1 -4.1 -0.7 -1.3 -0.7 -3.9 0 -8.1 0.5 -3.5 1.7 -11.5 2.6 -17.9 0.8 -6.3 1.9 -12 2.2 -12.7 0.4 -0.6 2.7 -1.2 5.2 -1.5 2.4 -0.2 4.6 -0.9 4.8 -1.5 0.2 -0.7 1 -0.8 2 -0.3 0.9 0.5 4 1.4 6.7 2 2.9 0.7 6 2.3 7.3 3.7 l2.3 2.4 -3.5 0 c-2 0 -5.1 -0.8 -7.1 -1.7 -4.1 -2 -6.8 -1 -7.3 2.5 -0.3 1.6 0.3 2.1 2.5 2.4 2.4 0.3 2.8 0.8 3.1 3.6 0.3 3.1 0.2 3.3 -2 2.7 -3.7 -1.2 -4.2 -1.1 -4.6 0.7 -0.2 1.2 0.8 2.2 3.2 3.2 4.8 2 4.6 3.6 -0.4 3.6 -3.5 0 -4 0.3 -4 2.4 0 2.6 2.1 3.6 8.3 3.6 3 0 3.7 0.4 3.7 1.9 0 2.2 -2.6 3.1 -9.2 3.1 -7.9 0 -10.3 1.9 -4.8 3.9 2.8 0.9 4.3 4.1 2 4.1 -0.5 0 -1 0.6 -1 1.3 0 1.7 4.2 3.7 7.5 3.7 1.8 0 2.5 0.6 2.5 1.9 0 1.4 -1.2 2.2 -4.5 3 -4.6 1.2 -5.3 3.1 -1.2 3.1 6.6 0.1 8.4 2.4 4.5 6 l-2.2 2 3.2 0 c4.8 0 4.2 3.1 -0.9 5.2 -3.8 1.6 -4.6 3.8 -1.3 3.8 2.3 0 1.6 3.7 -0.8 4.5 -2.1 0.7 -1.9 0.8 1.2 1.4 2.6 0.4 3.6 1.2 3.8 2.7 0.5 3.3 -3.8 4.1 -12.7 2.3z"/>
  <path d="M517.5 234.2 c-2.1 -1.5 -5.3 -9 -6.5 -15.2 -0.7 -3.6 -3.2 -15.9 -5.7 -27.4 -4.9 -22.7 -4.8 -25.4 0.7 -20.1 1.6 1.5 2.7 3.1 2.5 3.5 -0.4 0.6 4.9 26.9 8.4 42 1.1 4.7 2.1 8.8 2.1 9.2 0 0.4 0.6 1.3 1.4 2.1 0.8 0.8 1.2 2.4 0.9 4 -0.5 2.7 -1.9 3.4 -3.8 1.9z"/>
  <path d="M505.4 226.8 c-1.2 -1.2 -2.6 -4.8 -3.2 -7.8 -0.6 -3 -3.4 -15.8 -6.2 -28.5 -2.9 -12.6 -5.4 -24.5 -5.7 -26.3 -0.5 -3.2 -0.5 -3.2 1.9 -2.1 2.7 1.2 1.8 -2.2 11.3 41.3 2.5 11.5 4.5 22 4.3 23.4 l-0.3 2.4 -2.1 -2.4z"/>
  <path d="M290.6 215.7 c-1.4 -1.1 -1.7 -2.2 -1.3 -4.8 0.3 -1.9 0.8 -6.1 1.1 -9.4 0.2 -3.3 1 -9.7 1.7 -14.2 1 -6.8 1.6 -8.2 3.3 -8.7 4.3 -1.1 5 1.9 3 13.7 -0.5 3.1 -0.3 3.7 1.2 3.7 1.6 0 1.6 0.1 0 1.8 -1.1 1.3 -1.4 2.8 -1 5 0.4 2.1 0.3 3.2 -0.4 3.2 -0.7 0 -0.9 1.1 -0.6 2.8 0.4 1.9 -0.1 3.6 -1.6 5.5 -2.4 3.1 -2.9 3.2 -5.4 1.4z"/>
  <path d="M382 206.8 c0 -3.9 1.2 -6.8 2.6 -6.8 1 0 1.4 1.3 1.4 4.5 0 3.8 -0.3 4.5 -2 4.5 -1.4 0 -2 -0.7 -2 -2.2z"/>
  <path d="M432.4 203.4 c-0.8 -2 -1.4 -5.2 -1.2 -7.2 l0.3 -3.6 17.9 -8.3 c9.9 -4.6 18.3 -8.3 18.8 -8.3 0.4 0 0.8 0.6 0.8 1.4 0 0.8 0.5 1.6 1.2 1.8 0.8 0.3 0.9 1.6 0.2 4.8 -0.8 4.2 -1.1 4.5 -5 5.1 -2.2 0.4 -9.8 3.3 -16.7 6.5 -11.9 5.4 -12.7 5.9 -12.7 8.6 0 3.9 -1.8 3.5 -3.6 -0.8z"/>
  <path d="M382.6 196.8 c-0.3 -1.3 -0.6 -4.7 -0.6 -7.5 0 -4.6 0.3 -5.3 2 -5.3 1.8 0 2 0.7 2 7.5 0 5.7 -0.3 7.5 -1.4 7.5 -0.7 0 -1.6 -1 -2 -2.2z"/>
  <path d="M360.3 189.3 c-1.5 -0.6 -1.7 -3.3 -0.3 -3.3 0.5 0 1.4 0.9 2 2 1.1 2 0.6 2.3 -1.7 1.3z"/>
  <path d="M348.7 182.2 c-1.5 -1 -3.4 -2.7 -4.2 -3.8 -0.8 -1 -1.5 -1.4 -1.5 -0.9 0 0.6 -0.8 -0.5 -1.6 -2.2 -1.5 -3 -1.5 -4.3 0 -15.5 1 -6.8 2 -13.1 2.2 -14 0.9 -3 3.9 -2 9.1 2.7 4.6 4.2 4.7 4.4 2.2 4.5 -2.4 0 -2.7 0.5 -3.7 6.3 -0.9 5.4 -0.8 6.7 0.9 10 2.4 4.7 2.4 4.7 -0.1 4.7 -2.4 0 -2.6 1.3 -0.5 3 1.5 1.3 2.1 7 0.8 7 -0.5 0 -2 -0.8 -3.6 -1.8z"/>
  <path d="M381.5 179.3 c-0.3 -2.1 -1.3 -6.9 -2.1 -10.7 -2.2 -10.7 -1.7 -12.1 2.5 -6.6 1.8 2.5 2.3 4.8 2.7 12 0.5 7.6 0.3 9 -1 9 -1 0 -1.7 -1.3 -2.1 -3.7z"/>
  <path d="M428 177.3 c0 -2.6 0.8 -3.1 9.3 -6.7 5 -2.1 14.3 -6.3 20.4 -9.2 12.9 -6.1 15.3 -6.6 15.3 -2.9 0 1.6 -0.6 2.5 -1.5 2.5 -0.8 0 -1.5 0.4 -1.5 0.8 0 1.6 -36.7 18.2 -40 18.2 -1.5 0 -2 -0.7 -2 -2.7z"/>
  <path d="M323.6 172.2 c-1.6 -3.6 -1.6 -4.5 -0.2 -14.3 0.8 -5.7 1.8 -14.1 2.2 -18.6 0.7 -8.1 0.7 -8.1 3 -7.1 1.3 0.6 2.6 2.3 2.9 3.7 0.7 3.2 -3.9 37.9 -5.2 39.2 -0.6 0.6 -1.6 -0.5 -2.7 -2.9z"/>
  <path d="M484.8 148.9 c-2.2 -1.1 -3.8 -2.7 -3.8 -3.7 0 -1.6 3.4 -2.4 25.8 -6.2 39.3 -6.6 36.3 -6.3 40.3 -4.6 2 0.8 4.4 2.7 5.4 4.2 l1.7 2.7 -6.5 -0.7 c-3.7 -0.3 -8.6 -0.2 -10.9 0.3 -6.2 1.4 -14.4 2.8 -30.8 5.2 -8.5 1.3 -15 2.8 -15.6 3.6 -1.4 1.6 -1.1 1.6 -5.6 -0.8z"/>
  <path d="M466 138.5 c0 -4.1 0.2 -4.5 2.5 -4.5 1.4 0 17.2 -2.5 35.2 -5.5 29.1 -4.9 32.9 -5.4 34.2 -4 2.3 2.3 0.6 3.1 -10.4 4.8 -5.5 0.9 -19.4 3.2 -30.9 5.1 -11.5 2 -22.2 3.6 -23.7 3.6 -2.2 0 -3 0.6 -3.5 2.5 -1.1 4.4 -3.4 3 -3.4 -2z"/>
  <path d="M418.8 108.5 c-0.3 -0.3 -5.6 -1.9 -11.8 -3.4 -6.2 -1.6 -11.5 -3.3 -11.9 -3.8 -0.3 -0.6 -2.6 -1.7 -5.1 -2.5 l-4.5 -1.5 -0.5 -5.7 -0.5 -5.7 7 0.7 c9.5 0.8 24.5 5.2 24.5 7.2 0 1.2 -1.1 1.4 -5.9 0.9 l-6 -0.7 2.2 2.4 c2.1 2.2 10.4 6.6 12.6 6.6 0.6 0 1.1 1.4 1.1 3 0 3 -0.2 3.5 -1.2 2.5z"/>
  <path d="M345 95.8 c0 -1.2 0.7 -2.9 1.6 -3.9 1.6 -1.8 1.2 -5.9 -0.7 -5.9 -0.5 0 -0.9 -0.9 -0.9 -2 0 -1.7 0.7 -2 5 -2 5.8 0 7 1.4 7 8.2 -0.1 6.1 -1.7 7.8 -7.4 7.8 -4.1 0 -4.6 -0.3 -4.6 -2.2z"/>
 </g>
 <g fill="#845721">
  <path d="M293.3 594.3 c-1.6 -0.3 -2.3 -1.1 -2.3 -2.9 0 -2 0.5 -2.4 3 -2.4 l3 0 0 -13.5 0 -13.5 -2.5 -0.6 c-3.7 -0.9 -3.4 -4.4 0.4 -4.4 3.6 0 11.3 2.7 12.3 4.3 0.4 0.7 0.8 8.1 0.8 16.5 0 12.8 -0.2 15.2 -1.5 15.2 -0.8 0 -1.5 0.5 -1.5 1 0 1 -7.3 1.2 -11.7 0.3z"/>
  <path d="M412.7 572.3 c-0.4 -2.1 -0.7 -8.2 -0.7 -13.5 0 -8.1 0.3 -9.8 1.5 -9.8 0.9 0 1.5 0.9 1.5 2.2 0 2.8 1.2 1.6 1.4 -1.4 0.1 -1.4 0.8 -2.4 2.1 -2.6 1.1 -0.2 2.7 -1 3.5 -1.7 0.8 -0.7 3.3 -2 5.5 -3 10.3 -4.5 33.2 -17.4 41.3 -23.1 l2.2 -1.6 0 5.1 c0 4.9 -0.1 5.1 -2.7 5.1 -1.6 0 -3.5 0.5 -4.3 1 -1.1 0.7 -0.7 1 1.8 1 3 0 3.2 0.2 3.2 3.5 0 3.3 -0.2 3.5 -3.5 3.5 -3.1 0 -3.5 0.3 -3.5 2.5 0 1.5 -0.6 2.5 -1.4 2.5 -0.7 0 -1.6 1 -2 2.3 -0.9 3.6 -0.7 10.7 0.4 10.7 0.6 0 1 0.7 1 1.5 0 1.5 -10.4 7.9 -19.6 12.2 -4.7 2.1 -5.6 2.3 -7.4 1 -1.1 -0.7 -1.7 -1.7 -1.3 -2 0.3 -0.4 -0.1 -0.7 -1 -0.7 -1.3 0 -1.5 0.8 -1.2 3.5 0.3 2.3 0.1 3.5 -0.8 3.6 -0.6 0.1 -4.1 0.1 -7.7 0.2 -3.6 0 -6.8 0.5 -7.1 1 -0.3 0.5 -0.9 -0.9 -1.2 -3z m14.6 -8.7 c-0.3 -1.3 0.3 -3.6 1.4 -5.2 1.3 -2.1 1.4 -2.6 0.3 -2 -4.8 2.8 -6.2 6 -3.8 8.4 1.8 1.8 2.6 1.4 2.1 -1.2z m-10.3 -6 c0 -0.8 -0.4 -1.8 -1 -2.1 -0.5 -0.3 -1 0.3 -1 1.4 0 1.2 0.5 2.1 1 2.1 0.6 0 1 -0.6 1 -1.4z"/>
  <path d="M340.3 548.8 c-2.4 -1.6 -4.3 -3.4 -4.3 -3.9 0 -1.8 1.6 -0.9 5.5 3.1 4.6 4.7 4.4 4.8 -1.2 0.8z"/>
  <path d="M359.8 539.1 c-5.1 -3.3 -8.2 -7.3 -4.9 -6.4 1.7 0.4 11.2 9.3 10 9.3 -0.3 0 -2.6 -1.3 -5.1 -2.9z"/>
  <path d="M311 524.6 c-1.8 -2.5 -1.5 -8.6 0.4 -8.6 0.8 0 2.1 1.1 3 2.5 0.9 1.4 1.2 2.5 0.6 2.5 -0.6 0 -0.8 1 -0.4 2.4 0.8 3.1 -1.7 4 -3.6 1.2z"/>
  <path d="M332.2 516.7 c-2.4 -2.5 -3.2 -10.7 -1.1 -10.7 2.5 0 4.7 4.5 4.2 8.5 -0.2 2.2 -0.6 4.1 -0.7 4.2 -0.1 0.2 -1.2 -0.7 -2.4 -2z"/>
  <path d="M324 383.8 c0 -1.8 0.7 -4.2 1.6 -5.3 1.2 -1.7 1.5 -7.5 1.4 -38.8 -0.1 -33.6 0 -37.1 1.6 -38.8 4.3 -4.8 4.4 -4.2 4.4 37.7 0 25.3 -0.4 40.2 -1 41.5 -0.7 1.3 -0.7 1.9 0 1.9 2.3 0 0.8 1.7 -2.7 3 -2.1 0.8 -4.1 1.6 -4.5 1.8 -0.5 0.2 -0.8 -1.1 -0.8 -3z"/>
  <path d="M378.6 377.5 c-0.3 -0.8 -1.6 -1.5 -3 -1.5 l-2.4 0 0.4 -33.7 c0.3 -18.5 0.7 -34 1 -34.4 0.2 -0.4 -0.9 -2.1 -2.6 -3.7 -1.8 -1.8 -3 -4.1 -3 -5.6 0 -3.6 2 -7.5 4.2 -8.2 1 -0.3 1.6 -0.9 1.4 -1.3 -0.3 -0.4 -0.7 -9.4 -1 -20 l-0.6 -19.2 3.4 -11.7 c1.8 -6.4 4 -15.1 4.7 -19.2 1.8 -10.1 1.6 -38.2 -0.4 -48 -0.8 -4.1 -1.4 -7.6 -1.3 -7.7 0.1 -0.1 1.1 0 2.2 0.3 2.1 0.6 5.4 5.4 10.3 15 3.8 7.6 3.8 8.4 0.3 8.4 -2 0 -3.2 -0.7 -3.9 -2.2 -2.1 -4.8 -3.2 90 -1.2 107.9 0.7 6.3 0.7 10.4 0 13 -0.6 2.1 -1.2 17.8 -1.3 35.1 -0.3 28.9 -0.2 31.4 1.5 32.3 0.9 0.6 1.7 2.1 1.7 3.4 0 2.3 -0.4 2.5 -4.9 2.5 -3.4 0 -5.1 -0.4 -5.5 -1.5z"/>
  <path d="M241.3 362.3 c-2.1 -0.8 -1.5 -4.6 1.3 -7.8 l2.5 -3 -0.6 2.9 c-0.4 1.8 -0.2 3.2 0.5 3.6 0.9 0.6 0.9 1.3 0.1 2.9 -1.2 2.1 -1.7 2.3 -3.8 1.4z"/>
  <path d="M261.6 336.2 c-0.5 -0.9 0.4 -1.9 4.8 -5.2 1.8 -1.4 1.8 -1.4 0.9 0.5 -1.6 2.9 -5 5.8 -5.7 4.7z"/>
  <path d="M295 264 c-1.2 -0.7 -1.2 -1.6 -0.2 -5.7 0.9 -3.8 3.2 -19.6 3.2 -22.4 0 -0.9 4.9 -2.9 5.3 -2.1 0.5 0.8 -2.8 25.5 -3.9 29 -0.7 2.3 -2 2.7 -4.4 1.2z"/>
  <path d="M332.5 263 c-0.3 -0.5 -2.1 -1 -3.9 -1 -2.5 0 -3.5 -0.5 -3.9 -2 -0.3 -1 -0.1 -2 0.3 -2.2 0.4 -0.2 1.1 -1.4 1.5 -2.7 0.5 -1.6 0.4 -2.1 -0.4 -1.7 -0.6 0.4 -1.1 0.2 -1.1 -0.3 0 -1.4 1.3 -1.4 2.6 -0.1 0.7 0.7 2.9 0.4 6.7 -0.9 l5.7 -2 0 2.3 c0 1.5 -1 2.8 -2.7 3.7 l-2.8 1.4 4.8 0.3 c3.8 0.2 4.7 0.7 4.7 2.1 0 2.6 -10.1 5.3 -11.5 3.1z"/>
  <path d="M327 244.8 c0 -3.4 4 -7.8 7.1 -7.8 4 0 6.9 1.1 6.9 2.6 0 0.8 0.7 1.4 1.5 1.4 0.8 0 1.5 0.8 1.5 1.8 0 2.3 -6 4.6 -12.2 4.7 -4.5 0 -4.8 -0.1 -4.8 -2.7z"/>
  <path d="M330.5 231.8 c-8.1 -2 -10.5 -3.5 -10.5 -6.7 0 -3.6 2.5 -6.4 5 -5.6 1.4 0.4 12.5 2.5 13.8 2.5 0.1 0 0.2 0.7 0.2 1.5 0 1.1 -1.1 1.5 -3.7 1.5 -4.6 0 -3.3 1.7 1.7 2.2 2.7 0.2 3.6 0.8 3.8 2.4 0.5 3.3 -2.9 4 -10.3 2.2z"/>
  <path d="M516.2 228.8 c-0.6 -1.8 -1.6 -5.8 -2.2 -8.8 -0.6 -3 -1.6 -6.6 -2.1 -8 -0.5 -1.4 -1.2 -4.3 -1.5 -6.5 -0.3 -2.2 -1.9 -10.3 -3.5 -18 -1.9 -9.1 -2.6 -14.2 -1.9 -14.9 1.5 -1.5 6 3.3 6 6.3 0 1.4 2.3 12.5 5.1 24.6 6 26.1 6.2 27.9 3.2 28.3 -1.6 0.2 -2.3 -0.4 -3.1 -3z"/>
  <path d="M504.3 225.6 c-1.3 -1.6 -2.3 -3.5 -2.3 -4.2 0 -0.8 -2.7 -13.7 -6 -28.6 -6.4 -29.1 -6.8 -32.1 -4.6 -31.2 2 0.8 3.2 4.3 6.1 18.4 1.4 6.9 4.2 19.7 6.1 28.4 1.9 8.8 3.4 16.9 3.2 18 -0.3 1.9 -0.5 1.9 -2.5 -0.8z"/>
  <path d="M288.5 214.6 c-1.9 -1.4 -1.9 -1.7 -0.2 -15.7 0.9 -7.9 1.7 -15.6 1.7 -17.1 0 -2.4 0.4 -2.8 3 -2.8 2.7 0 3 0.3 3 3.3 -0.1 1.7 -0.7 7 -1.4 11.7 -1.1 7.3 -1.1 8.7 0.2 10.2 1.5 1.8 1.3 2.8 -1.4 6.6 -1.5 2 -1.5 2.2 0 2.2 0.9 0 1.6 0.5 1.6 1 0 0.6 -0.4 1 -0.9 1 -0.5 0 -1.5 0.2 -2.3 0.5 -0.7 0.3 -2.2 -0.1 -3.3 -0.9z"/>
  <path d="M331.5 213.3 c-10.6 -1.3 -10.7 -1.3 -9.4 -9.3 0.6 -4 0.5 -5.6 -0.4 -6.2 -0.9 -0.5 -0.9 -1 0.2 -2 1 -1 1.2 -1 0.7 0 -0.5 0.8 0 1.2 1.3 1.2 1.1 0 2.2 0.9 2.6 2 0.4 1.1 1.5 2 2.6 2 2.5 0 11.9 4.7 11.9 6 0 0.5 -1.5 1.1 -3.2 1.3 -2.3 0.3 -1.6 0.4 2 0.5 4.8 0.2 5.2 0.4 5.2 2.7 0 2.4 -0.3 2.5 -5.2 2.4 -2.9 -0.1 -6.6 -0.4 -8.3 -0.6z"/>
  <path d="M433.3 205.3 c-0.4 -2.1 -0.7 -4.4 -0.8 -5.2 0 -0.9 5 -3.7 13 -7.3 7.2 -3.3 14.6 -6.8 16.6 -7.8 4.4 -2.4 4.9 -2.4 4.9 -0.5 0 0.8 0.7 1.5 1.6 1.5 0.9 0 1.4 0.6 1.1 1.3 -0.2 0.6 -1 2.8 -1.7 4.8 -1.2 3.3 -1.6 3.6 -4.9 3.6 -4.3 -0.1 -26.1 9.9 -26.1 12 0 3 -2.9 1.1 -3.7 -2.4z"/>
  <path d="M295 201 c0 -1.1 0.4 -2 0.9 -2 1.7 0 1.9 1.5 0.5 2.8 -1.2 1.1 -1.4 0.9 -1.4 -0.8z"/>
  <path d="M335.4 198.6 c-2.8 -1.3 -5.4 -3.2 -5.8 -4.2 -0.6 -1.6 -0.8 -1.6 -1.6 -0.4 -0.7 1 -1 1.1 -1 0.3 0 -0.7 -0.7 -1.3 -1.5 -1.3 -1.1 0 -1.5 -1.2 -1.5 -4.8 0 -6.6 1.9 -8.3 8 -7.2 9.8 1.7 15.1 6 7.5 6 -1.9 0 -3.5 -0.4 -3.5 -1 0 -0.5 -0.5 -1 -1.1 -1 -0.6 0 -0.9 1.2 -0.7 2.8 0.2 2 1.6 3.5 5 5.7 3.2 2.1 4.7 3.7 4.7 5.3 0.1 2.8 -1.9 2.8 -8.5 -0.2z"/>
  <path d="M356.3 186.7 c-6.3 -3.9 -10.3 -9 -10.3 -13.1 0 -1.7 0.8 -8 1.7 -13.9 1.7 -10.8 1.7 -10.8 4.3 -10.2 2.5 0.6 10 7.1 10 8.7 0 0.4 -1.1 0.8 -2.4 0.8 -1.4 0 -2.8 0.5 -3.1 1 -0.3 0.6 -0.2 1 0.4 1 0.5 0 1.2 1.4 1.6 3 0.4 1.7 1.1 3 1.6 3 0.5 0 0.9 1.8 0.9 4 0 2.2 -0.4 4 -0.9 4 -0.6 0 -2.2 -2.2 -3.8 -5 -3.1 -5.6 -4 -6 -5.2 -2.8 -0.6 1.6 -0.3 2.6 0.9 3.8 2 1.7 10.2 16.9 9.8 18.1 -0.2 0.5 -2.7 -0.6 -5.5 -2.4z"/>
  <path d="M428.5 177 c-1.7 -2.8 1.2 -4.8 16.7 -11.5 8.9 -3.8 17.7 -8 19.5 -9.2 4.2 -2.9 7 -2.9 7.8 -0.2 0.4 1.1 0.5 2.1 0.3 2.3 -4.6 2.8 -41.3 19.6 -43 19.6 -0.4 0 -1 -0.5 -1.3 -1z"/>
  <path d="M321.9 168.8 c-0.8 -1.8 -1.3 -3.6 -1.2 -4 0.7 -2.1 3.3 -26 3.3 -30 l0 -4.8 2.6 1.2 2.7 1.2 -0.7 9.1 c-0.8 11.6 -3.4 28.7 -4.5 29.8 -0.4 0.4 -1.4 -0.7 -2.2 -2.5z"/>
  <path d="M490.4 151.4 c-2.9 -1.2 -5.1 -4 -3.9 -5.2 0.5 -0.5 3.6 -1.1 23.5 -4.2 6.9 -1 15.2 -2.4 18.5 -3 18.6 -3.4 19.5 -3.3 24.8 0.9 3 2.4 1.9 3 -5.5 2.8 -4.3 0 -8.3 0.5 -9.7 1.2 -1.6 0.9 -4 1.1 -7.3 0.7 -3.6 -0.5 -5.4 -0.3 -7 0.9 -1.3 0.8 -3.6 1.5 -5.2 1.5 -5.6 0 -23.1 3.2 -24.1 4.5 -0.8 0.9 -1.7 0.9 -4.1 -0.1z"/>
  <path d="M464.7 142.3 c-0.4 -0.3 -0.7 -2.3 -0.7 -4.3 l0 -3.7 7.8 -1.3 c4.2 -0.7 20.1 -3.4 35.2 -6 25.6 -4.4 27.7 -4.7 30 -3.2 l2.5 1.5 -2.5 0.8 c-3.4 1.1 -62.5 10.9 -65.6 10.9 -2 0 -2.4 0.5 -2.4 3 0 2.2 -0.5 3 -1.8 3 -1 0 -2.2 -0.3 -2.5 -0.7z"/>
  <path d="M421.8 109.3 c-2.7 -0.7 -4.8 -1.8 -4.8 -2.3 0 -0.5 -0.7 -0.7 -1.5 -0.4 -0.8 0.4 -1.5 0.1 -1.5 -0.5 0 -0.6 -0.6 -0.8 -1.4 -0.5 -0.7 0.3 -1.6 -0.2 -1.9 -1 -0.4 -0.9 -1.3 -1.6 -2.1 -1.6 -0.9 0 -2.9 -1.3 -4.6 -3 -3.5 -3.5 -4.2 -8.5 -1.1 -9.5 2.5 -0.8 12.3 1.7 20.5 5.2 8.5 3.6 9.5 5.3 3.2 5.3 -2.5 0 -4.6 -0.4 -4.6 -1 0 -0.5 -1.2 -1 -2.6 -1 -3.8 0 -2.5 2 2.6 4 4.3 1.7 5.5 3.3 4.8 6.4 -0.2 1.1 -1 1.1 -5 -0.1z"/>
  <path d="M341 96.1 c0 -1 0.6 -3.1 1.4 -4.6 1.4 -2.7 1.2 -5.5 -0.5 -5.5 -0.5 0 -0.9 -0.9 -0.9 -2 0 -1.6 0.7 -2 3.4 -2 4.6 0 6.6 2.2 6.6 7.3 -0.1 5.4 -2.7 8.7 -6.9 8.7 -2.4 0 -3.1 -0.4 -3.1 -1.9z"/>
  <path d="M274 71.5 c0 -1.6 1.7 -2.2 9 -2.9 3 -0.3 4.7 -0.2 3.6 0.1 -1 0.3 -4.3 1.3 -7.2 2.3 -4.4 1.5 -5.4 1.6 -5.4 0.5z"/>
 </g>
 <g fill="#8d6025">
  <path d="M277.8 592.2 c-8.2 -1.4 -8.8 -1.6 -8.8 -3.8 0 -2.1 0.5 -2.4 3.5 -2.4 4 0 3.8 0.7 3.6 -13 -0.1 -4.7 -0.7 -10.9 -1.3 -13.8 -0.6 -2.8 -0.9 -5.4 -0.6 -5.7 0.6 -0.7 14.8 2.1 21.1 4.1 l4.7 1.6 0 16.4 0 16.4 -3 0 c-1.6 0 -3 0.5 -3 1 0 1.3 -5.6 1.1 -16.2 -0.8z"/>
  <path d="M441.6 560.5 c-1 -1.6 -1.2 -2.5 -0.5 -2.5 0.6 0 0.8 -0.7 0.5 -1.6 -0.5 -1.2 -0.2 -1.5 1 -1 1.1 0.4 1.8 -0.1 2.1 -1.4 0.6 -2.3 2.8 -2.7 3.7 -0.5 1.3 3.5 6.6 -0.1 6.6 -4.6 -0.1 -3.1 -7.7 -11.4 -9.3 -10.1 -2.3 1.7 -5.7 2.1 -5.7 0.6 0 -0.8 0.6 -1.4 1.3 -1.4 0.7 0 1.8 -0.9 2.5 -2 0.7 -1.1 1.6 -2 2.1 -2 0.5 0 1.3 0.9 1.6 2 0.3 1.1 1.3 2 2.1 2 0.8 0 1.4 0.4 1.4 1 0 1.2 4 3.3 4.8 2.5 0.4 -0.3 -0.4 -1.4 -1.7 -2.4 -1.3 -1 -2.2 -2.5 -2 -3.6 0.4 -1.6 0.7 -1.5 2.9 0.8 3 3.2 5.2 3.6 2.3 0.5 -1.1 -1.3 -2.5 -3.2 -3.1 -4.3 -0.6 -1.1 -1.2 -1.4 -1.2 -0.7 0 0.6 -1 1.2 -2.2 1.2 -1.7 0 -1.3 -0.6 2.1 -3 2.3 -1.7 4.6 -2.8 5.1 -2.5 0.4 0.3 2.2 -0.8 3.8 -2.5 1.7 -1.6 3.5 -3 4.1 -3 0.5 0 1.4 -0.6 1.8 -1.2 0.4 -0.7 5.3 -4.7 10.8 -8.8 5.5 -4.1 16.7 -14.1 24.8 -22.2 14.8 -14.7 14.8 -14.7 14.5 -11 -0.3 3.4 -0.6 3.7 -3.5 4 -3 0.3 -3.3 0.6 -3.3 3.6 0 2.4 -0.9 4.1 -3.5 6.6 -1.9 1.9 -4 5 -4.5 7 -1.3 4.6 -1.3 17 0 17 0.6 0 1 -0.4 1 -1 0 -0.5 0.7 -1 1.5 -1 0.8 0 1.5 -0.6 1.5 -1.3 0 -2.2 6.7 -7.7 9.4 -7.7 2.2 0 2.6 -0.4 2.6 -3 0 -2.9 0.2 -3 4.6 -3 l4.5 0 -1.9 2.8 c-2.9 3.9 -17.5 18.6 -26.2 26.3 -17.5 15.4 -39.7 30.1 -44.1 29.2 -1.6 -0.3 -3.2 0.1 -4.2 1.1 -1.5 1.5 -5.9 3.6 -7.7 3.6 -0.4 0 -1.5 -1.1 -2.4 -2.5z"/>
  <path d="M450.5 550 c2 -2.2 3.1 -2 2.2 0.5 -0.4 0.8 -1.4 1.5 -2.3 1.5 -1.6 0 -1.6 -0.2 0.1 -2z"/>
  <path d="M443.7 547.1 c-0.3 -1.1 0.1 -2.8 0.7 -3.7 1.8 -2.4 5.9 -0.2 5.4 2.9 -0.4 3 -5.3 3.7 -6.1 0.8z"/>
  <path d="M309.2 522.7 c-2.5 -2.7 -3.2 -10.7 -0.9 -10.7 2.2 0 5.3 5.3 5.2 8.9 0 4.3 -1.5 4.8 -4.3 1.8z"/>
  <path d="M329.8 514.2 c-2.9 -3.4 -3.9 -12.2 -1.5 -12.2 2.2 0 4.9 4.8 5.4 9.5 0.5 5.4 -0.8 6.3 -3.9 2.7z"/>
  <path d="M316 387.6 c0 -1.8 0.7 -3.9 1.5 -4.6 1.4 -1.1 1.6 -6.1 1.5 -37.9 l-0.2 -36.6 4.8 -3.7 c2.7 -2 5.2 -3.4 5.6 -3.2 0.4 0.3 0.8 18 0.8 39.3 0 31.5 -0.3 39.1 -1.4 40.6 -0.8 1.1 -1.2 2.4 -1 3 0.4 0.8 -9.3 6.5 -11.1 6.5 -0.3 0 -0.5 -1.5 -0.5 -3.4z"/>
  <path d="M384.5 376.7 c-1.9 -2.1 -2 -3.4 -1.8 -35.6 0.1 -18.4 0.4 -34.5 0.8 -35.8 0.5 -2.1 0.3 -2.2 -2.1 -1.3 -4.6 1.8 -5.7 1.2 -2.7 -1.6 l2.8 -2.5 -2.5 0.7 -2.5 0.6 2.3 -2.4 c2.6 -2.9 2.1 -5.8 -1.2 -5.9 -2 0 -2 -0.1 -0.1 -0.9 1.3 -0.5 2.8 -0.3 4.3 0.6 2.1 1.4 2.2 1.3 1.8 -0.9 -0.9 -5.3 -0.7 -78.1 0.4 -118.7 l0.1 -2.5 2.2 2.8 c1.3 1.5 2.9 2.7 3.6 2.7 0.8 0 1 0.7 0.6 2 -0.5 1.5 -0.2 2 1.2 2 1.5 0 1.6 0.2 0.3 1 -1.2 0.8 -1.2 1 0.5 1 1.7 0 1.7 0.2 0.5 1 -1.3 0.9 -1.3 1 0 1 2.7 0 6.1 12.5 8.5 30.6 2 15.4 4.3 23.6 9.5 33.1 l4 7.5 -3.8 -0.4 -3.9 -0.3 -0.1 58.4 c-0.2 62.3 -0.4 60.1 4.6 60.1 3.6 0 2.3 3.3 -1.8 4.7 -1.9 0.7 -8 1.2 -13.5 1.2 -9 -0.1 -10.2 -0.3 -12 -2.2z"/>
  <path d="M238.6 366.4 c-1.1 -2.9 -0.6 -5.8 1.7 -9.1 2.6 -3.9 4.2 -4.3 3.3 -0.9 -0.4 1.5 -0.1 2.6 0.6 2.8 1 0.4 0.8 1.5 -0.7 4.6 -2.1 4.4 -3.9 5.3 -4.9 2.6z"/>
  <path d="M292.3 263.7 c-4.6 -0.9 -5.3 -2.2 -2.9 -6 0.8 -1.2 1.9 -6.2 2.5 -11.1 0.6 -4.9 1.2 -9 1.3 -9 0.2 -0.1 2 -0.9 4.1 -1.9 l3.7 -1.7 0 3.3 c-0.1 4.8 -2.6 22.9 -3.6 25.2 -0.8 1.9 -1.4 2 -5.1 1.2z"/>
  <path d="M337 262.3 c0 -0.7 -1.1 -1.3 -2.5 -1.3 -2.2 0 -2.5 -0.4 -2.5 -3.6 0 -3.3 0.3 -3.7 5.3 -6 3 -1.3 7.5 -2.7 10 -3 4.3 -0.6 4.7 -0.5 4.7 1.5 0 1.7 0.6 2.1 3 2.1 1.7 0 3 0.4 3 0.8 0 2.8 -13.8 9.7 -17.2 8.6 -1.3 -0.4 -2.4 -0.1 -2.9 0.7 -0.6 1 -0.9 1.1 -0.9 0.2z"/>
  <path d="M337.8 244.3 c-2.6 -0.3 -3.9 -1 -4.3 -2.4 -0.4 -1.1 -0.4 -2.4 0 -2.7 0.9 -0.9 14.6 -0.8 17 0.2 1.7 0.7 1.4 1.1 -2.5 3.1 -2.5 1.3 -4.9 2.4 -5.5 2.3 -0.5 -0.1 -2.7 -0.3 -4.7 -0.5z"/>
  <path d="M346.5 232.3 c-4.4 -0.2 -8.4 -0.8 -8.9 -1.3 -0.6 -0.6 -2.3 -1 -3.9 -1 -4.2 0 -6.7 -1.7 -6.7 -4.5 0 -3 0.9 -3.2 15.3 -3.8 9.9 -0.4 10.7 -0.3 10.7 1.3 0 1.3 -0.9 2 -2.7 2.3 -2.5 0.4 -2.4 0.4 0.7 0.6 2.6 0.2 4.2 1.1 6.3 3.7 l2.9 3.4 -2.9 -0.2 c-1.5 -0.1 -6.4 -0.4 -10.8 -0.5z"/>
  <path d="M516.5 222.6 c-0.9 -3.9 -3.4 -15.4 -5.6 -25.6 -2.2 -10.2 -4.2 -19.3 -4.5 -20.2 -1 -3.4 3.2 -2 5.9 2 3.4 4.9 4 6.7 6.6 19.2 1.2 5.8 2.7 11.7 3.3 13.2 0.6 1.7 0.8 5.6 0.3 10.2 -0.5 6 -1 7.5 -2.5 7.9 -1.6 0.4 -2.1 -0.6 -3.5 -6.7z"/>
  <path d="M503.4 225.2 c-1.8 -1.4 -3.4 -7 -8.8 -31.7 -3.6 -16.5 -6.6 -30.8 -6.6 -31.7 0 -1.5 0.4 -1.6 2.4 -0.7 1.4 0.7 2.7 2.1 3 3.3 5.2 21.1 13.5 62.6 12.5 62.6 -0.2 0 -1.4 -0.8 -2.5 -1.8z"/>
  <path d="M437.2 213.7 c-5.4 -8.9 -5 -9.6 8.1 -15.6 6.1 -2.8 12.5 -5.8 14 -6.6 3.6 -1.9 4.5 -1.9 6.3 -0.1 2 2.1 1.8 3 -2.1 10.5 -7.4 13.9 -13.5 19.5 -13.5 12.5 0 -2.9 0 -2.9 -4.5 -0.7 -2.1 1 -3.5 2.4 -3.5 3.5 0 3.1 -1.4 2 -4.8 -3.5z"/>
  <path d="M284.8 212.9 c-4.3 -2.2 -4.3 -2 -2.3 -14.9 0.8 -5.2 1.5 -11.4 1.5 -13.6 0 -4.5 1 -5.4 6 -5.4 3.7 0 3.9 1.1 2.4 13.5 -0.7 5.9 -0.9 10.1 -0.3 10.3 1.4 0.6 1.1 2.3 -0.8 4.5 -1.7 1.9 -1.7 2 0 1.4 2.1 -0.8 2.2 0.6 0.1 3.8 -1.9 3 -1.9 3 -6.6 0.4z"/>
  <path d="M334 213 c0 -0.5 -1.1 -1.2 -2.5 -1.6 -2.3 -0.6 -2.5 -1 -1.9 -4.3 0.4 -2 0.8 -3.7 0.9 -3.9 1 -1.2 21.5 7 21.5 8.6 0 1.2 -9.4 2.3 -9.8 1.1 -0.5 -1.2 -4.2 -1.2 -4.2 0.1 0 0.6 -0.9 1 -2 1 -1.1 0 -2 -0.4 -2 -1z"/>
  <path d="M353.5 203.4 c-10.2 -2 -12.5 -2.7 -12.5 -3.5 0 -0.6 -0.4 -0.7 -1 -0.4 -0.5 0.3 -1 0.1 -1 -0.6 0 -0.7 -0.2 -1 -0.5 -0.7 -0.3 0.3 -2.1 -0.8 -4 -2.5 -3.2 -2.8 -3.5 -3.6 -3.5 -8.4 l0 -5.3 3.4 0 c1.9 0 3.8 0.5 4.1 1 0.3 0.6 1.5 1 2.5 1 1 0 2 0.4 2.2 0.8 0.2 0.4 3.3 2.4 6.9 4.5 3.6 2 7.2 4.3 7.9 5.2 1.1 1.3 0.7 1.5 -3.1 1.5 -5.4 0.1 -3.5 1.5 3.4 2.4 3.6 0.6 4.7 1.1 4.7 2.5 0 2.6 -3.9 3.6 -9.5 2.5z"/>
  <path d="M231.1 196.6 c0.2 -0.2 1.4 -0.9 2.7 -1.5 1.8 -1 2.2 -0.9 2.2 0.4 0 1 -0.9 1.5 -2.7 1.5 -1.4 0 -2.4 -0.2 -2.2 -0.4z"/>
  <path d="M354.3 183.3 c-3.2 -3.3 -4.6 -8.1 -2 -6.9 0.6 0.3 1.9 0.8 2.7 1.2 1.5 0.5 5 5.7 5 7.4 0 2.1 -2.8 1.3 -5.7 -1.7z"/>
  <path d="M363.8 180.1 c-3.2 -3.4 -5.8 -7.1 -5.8 -8.2 0 -1 -0.4 -1.9 -0.9 -1.9 -0.5 0 -1.2 -1.4 -1.6 -3 -0.4 -1.8 -1.1 -2.7 -1.7 -2.4 -1.2 0.7 -0.6 -9.1 0.5 -10.3 1.4 -1.4 7.1 2.8 11.2 8.3 5.5 7.3 6.2 9.4 2.9 9.4 -2.9 0 -3 0.4 -0.3 4.1 1.4 2 1.9 4.1 1.7 6.6 l-0.3 3.6 -5.7 -6.2z"/>
  <path d="M428.8 175.8 c-0.2 -0.5 -0.2 -2.5 0 -4.3 0.4 -3 0.9 -3.4 12.5 -8.5 6.7 -3 15.3 -6.9 19.1 -8.7 8.9 -4.2 11.2 -4.3 11.8 -0.3 0.3 1.9 0 3 -0.8 3 -0.6 0 -1.7 0.6 -2.3 1.4 -0.7 0.8 -7.4 4.1 -14.9 7.4 -7.5 3.4 -16.3 7.2 -19.4 8.6 -3.5 1.5 -5.8 2.1 -6 1.4z"/>
  <path d="M319.3 163.8 c-1.9 -4.1 -2 -4.8 -0.7 -14.3 0.7 -5.5 1.3 -12.6 1.4 -15.7 l0 -5.8 3.5 1.7 c1.9 0.9 3.7 2.4 4 3.3 0.3 0.9 -0.4 8.9 -1.5 17.6 -1.1 8.7 -2 16.2 -2 16.7 0 0.4 -0.6 0.7 -1.3 0.7 -0.7 0 -2.2 -1.9 -3.4 -4.2z"/>
  <path d="M500 154.9 c-6.4 -1.8 -8.8 -3 -9.3 -5 -0.4 -1.4 0.1 -2 1.6 -2.4 5.3 -1.2 20.2 -3.5 22.8 -3.5 1.6 0 4.6 -0.9 6.8 -2.1 3.1 -1.6 4.8 -1.9 7.8 -1.3 2.1 0.5 4.3 0.6 4.8 0.5 5.1 -1.8 14.1 -2.8 16.4 -1.8 2.5 1.1 6 4.5 6.1 5.9 0 1.4 -8.4 5.1 -8.8 3.9 -0.5 -1.5 -12.7 -0.3 -16.5 1.6 -1.5 0.7 -4.4 1.4 -6.5 1.3 -5.3 -0.1 -17.2 2.1 -17.2 3.1 0 1.1 -3.4 1 -8 -0.2z"/>
  <path d="M462.7 140.3 c-0.4 -0.3 -0.7 -2.3 -0.7 -4.3 l0 -3.6 31.8 -5.3 c17.4 -2.9 33.1 -5.6 34.8 -6.1 2.4 -0.6 3.9 -0.3 6.4 1.3 2.3 1.5 2.8 2.2 1.8 2.7 -0.7 0.4 -16.6 3.3 -35.3 6.5 -18.7 3.1 -34.2 5.9 -34.4 6.1 -0.2 0.2 0.2 1 0.9 1.9 1.1 1.3 0.8 1.5 -1.7 1.5 -1.6 0 -3.3 -0.3 -3.6 -0.7z"/>
  <path d="M242 120 c1.4 -1 2.7 -1.6 3 -1.3 0.6 0.6 -3 3.3 -4.4 3.3 -0.6 0 0 -0.9 1.4 -2z"/>
  <path d="M448 119.7 c-1.4 -0.7 -7.3 -3.2 -13.2 -5.6 -5.9 -2.3 -10.8 -4.7 -11 -5.3 -0.2 -0.6 -2.4 -1.9 -4.8 -2.8 -5.8 -2.2 -8 -5.7 -6 -9.5 0.9 -1.7 1.9 -2.4 2.9 -1.9 0.9 0.3 3.3 0.8 5.4 1.1 2 0.3 3.7 1 3.7 1.4 0 0.5 0.9 0.9 2 0.9 2.5 0 7.9 2.7 18.7 9.2 9.9 6 11.7 7.8 8 7.8 -2.1 0 -2.6 0.5 -2.9 3 -0.3 2.8 -0.4 2.9 -2.8 1.7z"/>
  <path d="M332.7 91 c-0.2 -4.1 -0.4 -7.6 -0.3 -7.6 0 -0.1 2.7 -0.4 5.9 -0.7 4.3 -0.4 6.1 -0.2 7.2 0.9 1.9 2 1.9 6.7 -0.1 10.9 -1.4 3.1 -2 3.3 -6.9 3.7 l-5.3 0.3 -0.5 -7.5z"/>
  <path d="M269 72.6 c0 -1.9 0.8 -2.3 4.9 -2.8 4.8 -0.4 5 1.6 0.3 3 -5 1.5 -5.2 1.5 -5.2 -0.2z"/>
 </g>
 <g fill="#986d29">
  <path d="M263.3 589.3 c-5.6 -1.3 -6.3 -1.7 -6.3 -3.9 0 -2.1 0.5 -2.4 3.6 -2.4 3.4 0 3.6 -0.2 3.1 -2.7 -1.6 -7.9 -1.9 -15.4 -0.7 -16.8 1.9 -2.3 0.3 -9.5 -2.1 -9.5 -1.4 0 -1.9 -0.7 -1.9 -2.6 0 -2.2 0.3 -2.5 2.3 -2 1.2 0.3 5.2 1.3 8.9 2.3 3.8 1 7 2.4 7.4 3.3 1 2.4 2.4 27.1 1.8 30.8 -0.6 2.9 -1 3.2 -4 3.2 -1.9 0 -3.4 0.5 -3.4 1 0 1.2 -0.8 1.2 -8.7 -0.7z"/>
  <path d="M498.1 522.7 c-0.8 -1.6 -0.8 -3.2 -0.1 -5.7 0.5 -1.9 1 -6.4 1 -10 0 -9.6 1.2 -12.3 8.8 -20.8 19.1 -21.3 34.1 -42.9 48.5 -69.4 2.6 -4.7 3.7 -4.8 3.7 -0.3 0 2.8 -0.4 3.5 -2 3.5 -1.6 0 -2 0.7 -2 3.5 0 1.9 -0.4 3.5 -1 3.5 -0.5 0 -1 0.7 -1 1.5 0 1.4 -6.8 15.5 -8 16.5 -0.3 0.3 -1.6 1.9 -2.8 3.7 -1.9 2.7 -2.2 4.4 -2.1 12.5 0 5.1 0.3 8.6 0.7 7.8 0.7 -1.6 6.2 -9.1 7.3 -10 0.4 -0.3 0.9 -1.5 1.3 -2.7 0.6 -1.9 1.5 -2.3 4.8 -2.3 l4 0 -3.7 6.8 c-5.3 9.6 -17.4 27.5 -24.2 35.7 -4.2 5.2 -6.3 7 -7.8 6.7 -1.6 -0.2 -1.7 -0.1 -0.5 0.7 1.2 0.8 1.1 1.4 -0.9 3.5 -1.3 1.3 -2.9 2.2 -3.7 1.9 -2 -0.8 -8.5 5.7 -7.8 7.9 0.4 1.4 0.1 1.6 -1.1 1.1 -1 -0.3 -2 -0.2 -2.4 0.3 -0.3 0.5 -2.2 2.1 -4.2 3.6 l-3.6 2.7 -1.2 -2.2z"/>
  <path d="M307.3 520.7 c-2.6 -2.8 -3.2 -11.7 -0.9 -11.7 2.1 0 4 3.7 4.3 8.7 0.4 5 -0.7 6 -3.4 3z"/>
  <path d="M327.6 511.5 c-2 -3.1 -2.2 -10.5 -0.2 -10.5 1.8 0 3.9 2.7 3.1 4 -0.3 0.5 0.2 1 1.2 1.1 1 0 1.3 0.3 0.6 0.6 -0.7 0.2 -1.3 1.8 -1.3 3.3 0 3.9 -1.4 4.5 -3.4 1.5z"/>
  <path d="M283.7 468.3 c-0.4 -0.3 -0.7 -2.1 -0.7 -4 0 -2.6 0.4 -3.3 2 -3.3 1.7 0 2 0.7 2 4 0 3.8 -1.4 5.2 -3.3 3.3z"/>
  <path d="M243 461.8 c-3 -14 -4.2 -25.6 -3.6 -35.6 0.7 -13.1 3.2 -24.2 5.3 -24.2 1.3 0 1.5 0.9 0.9 5.3 -1.6 13.1 -1.9 17.9 -0.9 18.5 1.1 0.8 2.3 25.2 1.2 25.2 -0.3 0 -0.3 1.9 0.2 4.3 1.3 6.8 1.1 11.7 -0.5 11.7 -0.9 0 -1.9 -1.9 -2.6 -5.2z"/>
  <path d="M283 451.8 c0 -3.9 1.2 -6.8 2.6 -6.8 1 0 1.4 1.3 1.4 4.5 0 3.8 -0.3 4.5 -2 4.5 -1.4 0 -2 -0.7 -2 -2.2z"/>
  <path d="M304 438.8 c0 -3 1.3 -5.8 2.6 -5.8 0.9 0 1.4 1.2 1.4 3.5 0 2.8 -0.4 3.5 -2 3.5 -1.1 0 -2 -0.6 -2 -1.2z"/>
  <path d="M218.6 422.8 c-1.5 -5.8 -0.3 -14.8 2 -14.8 1.1 0 1.4 1.9 1.4 8.5 0 6.6 -0.3 8.5 -1.4 8.5 -0.7 0 -1.6 -1 -2 -2.2z"/>
  <path d="M69.2 408 c-0.9 -3.8 -0.9 -4 1.4 -4 2.1 0 2.4 0.4 2.4 4 0 2.7 -0.4 4 -1.4 4 -0.8 0 -1.8 -1.8 -2.4 -4z"/>
  <path d="M66.6 398.1 c-1 -1.5 -5.4 -22.9 -7.2 -34.6 -2.4 -15.9 -2.4 -57.8 0 -73.5 3.5 -22.7 9 -45 11.2 -45 2 0 1.8 2.8 -1.5 16.4 -6.4 27.2 -7.5 37.9 -6.8 68.6 0.6 26.3 2.3 42.7 5.7 56.2 2.4 9.2 2.5 12.8 0.6 12.8 -0.8 0 -1.7 -0.4 -2 -0.9z"/>
  <path d="M312.5 388.8 c0.4 -2.4 0.9 -19.8 1.2 -38.7 0.3 -27.1 0.1 -34.6 -0.9 -35.2 -1.3 -0.8 -1.1 -1.1 5.3 -5.9 1.4 -1.1 2.9 -1.7 3.3 -1.3 0.3 0.3 0.6 17.8 0.6 38.8 0 32.1 -0.2 38.4 -1.4 39.5 -0.8 0.6 -1.3 1.7 -1 2.4 0.4 1 -5.3 4.6 -7.2 4.6 -0.4 0 -0.3 -1.9 0.1 -4.2z"/>
  <path d="M410.5 376.5 c-0.5 -0.2 -2.2 -0.6 -3.7 -0.9 l-2.8 -0.6 0.1 -65.5 c0 -36 0.4 -65.7 0.8 -65.9 0.4 -0.3 1.5 0.8 2.5 2.5 0.9 1.6 2.5 2.9 3.4 2.9 1.5 0 1.5 0.2 0.2 1 -1.3 0.8 -1.2 1.1 0.6 1.6 1.1 0.3 2.8 1.7 3.6 3.2 1.9 3.2 12.7 14.2 13.9 14.2 0.5 0 0.9 0.5 0.9 1 0 0.6 -1.6 1 -3.5 1 l-3.5 0 0 7.5 0 7.5 3 0 c1.7 0 3 0.5 3 1 0 0.6 -2 3 -4.5 5.3 -3.8 3.6 -4.5 5 -4.5 8.1 0 4.2 1.8 8.2 5 11.1 4 3.7 4.2 5 1.5 11.5 -2.4 5.6 -2.4 6.2 -1 9 2.5 4.9 1.9 7.6 -2.5 10.7 -5.3 3.8 -6.7 7.9 -4.7 14.1 3.5 11.1 3 14.8 -2.5 18.2 -3.4 2 -3.6 2.1 -5.3 1.5z"/>
  <path d="M237.3 370.3 c-2.2 -0.8 -1.5 -7.5 1.1 -10.6 l2.3 -2.9 0.7 5.1 c0.4 3.4 0.2 5.7 -0.6 7.1 -1.3 2.1 -1.5 2.2 -3.5 1.3z"/>
  <path d="M286.3 261.4 c-0.3 -0.8 -0.1 -2.5 0.5 -3.7 0.6 -1.2 1.6 -5.8 2.2 -10.2 1 -7.9 2.4 -10.5 5.7 -10.5 1.6 0 1.6 1 0.2 12.5 -0.6 5 -1.7 10 -2.5 11.3 -1.7 2.5 -5.2 2.9 -6.1 0.6z"/>
  <path d="M345.5 253.8 c1 -4.6 3 -5.8 9.9 -5.8 7.4 0 9.4 1 6.9 3.2 -2.9 2.5 -6.5 4.1 -9.8 4.3 -1.6 0.1 -4.1 0.5 -5.4 0.9 -2.2 0.8 -2.3 0.6 -1.6 -2.6z"/>
  <path d="M251.4 248.5 c-1.8 -1.5 -1.8 -1.5 0.5 -1.3 1.4 0.2 2.6 0.9 2.9 1.6 0.5 1.7 -1 1.5 -3.4 -0.3z"/>
  <path d="M343.1 228.1 c-1.7 -1.1 -0.6 -4.8 1.7 -5.5 3.1 -0.9 13.5 -2.6 16 -2.6 2.3 0 2.2 0.2 -1.4 3.1 -2.2 1.7 -3.8 3.8 -3.8 4.5 0.1 1 -1.2 1.4 -5.5 1.4 -3.1 0 -6.2 -0.4 -7 -0.9z"/>
  <path d="M442 220.8 c-4.8 -6.6 -4.3 -7.7 5.5 -12.6 9.7 -4.8 10.5 -5 9.8 -2.2 -0.3 1.1 0 2 0.6 2 0.6 0 1.1 0.5 1.1 1 0 0.6 -0.8 1 -1.9 1 -1 0 -2.4 0.7 -3.2 1.6 -1 1.3 -1 1.7 0.1 2.4 1.2 0.7 1.2 1.1 0 2.7 -2.7 3.5 -7.4 8.3 -8.2 8.3 -0.4 0 -2.1 -1.9 -3.8 -4.2z"/>
  <path d="M501.2 223.7 c-1 -1.2 -14.2 -58.9 -14.2 -62.1 0 -1.8 0.8 -2 2.9 -0.7 1.5 0.9 14 55.1 14.1 60.9 0 3.4 -1 4.1 -2.8 1.9z"/>
  <path d="M518.6 213.3 c-0.2 -1 -1.7 -7.4 -3.1 -14.3 -1.4 -6.9 -2.9 -13.3 -3.1 -14.2 -0.4 -1.2 0 -1.8 1 -1.8 3.2 0 8 13.1 9.2 25 0.6 6.6 0.5 7 -1.4 7 -1.1 0 -2.3 -0.8 -2.6 -1.7z"/>
  <path d="M279.8 210.4 c-2.7 -1.4 -3.6 -3.8 -1.9 -4.8 0.4 -0.3 1.4 -6.1 2.1 -13 l1.3 -12.4 2.9 -0.4 c1.6 -0.3 3.1 -0.1 3.4 0.3 0.3 0.5 -0.2 6.6 -1.1 13.5 -0.9 7 -1.8 13.8 -1.9 15.2 -0.4 3.2 -1.3 3.5 -4.8 1.6z"/>
  <path d="M351 202 c0 -0.6 -1.2 -1.6 -2.6 -2.2 -2.2 -1 -2.5 -1.7 -2 -4.2 0.9 -4.4 1.9 -5 6.3 -3.5 4.2 1.4 14.3 8.4 14.3 9.9 0 1.3 -4.5 1.3 -8.8 0.1 -2 -0.6 -3.2 -0.6 -3.2 0 0 0.5 -0.9 0.9 -2 0.9 -1.1 0 -2 -0.5 -2 -1z"/>
  <path d="M233 196.1 c0 -0.5 0.7 -1.2 1.6 -1.5 2.2 -0.9 2.4 -0.8 2.4 0.9 0 0.8 -0.9 1.5 -2 1.5 -1.1 0 -2 -0.4 -2 -0.9z"/>
  <path d="M372.6 187.7 c-2.2 -1.2 -4.4 -3.1 -5 -4.2 -0.6 -1.1 -1.9 -3.2 -2.8 -4.7 -2 -2.9 -2.4 -9.4 -0.8 -11.8 0.9 -1.3 1.2 -1.3 2.4 0.3 0.7 0.9 1.8 1.7 2.4 1.7 1.7 0 8.9 17.6 8 20 -0.2 0.5 -2.1 -0.1 -4.2 -1.3z"/>
  <path d="M429 169.8 c0 -3.5 1 -4.3 8.5 -7.6 14.3 -6.2 26.8 -12.1 27.8 -13.1 2.1 -2.1 5.4 -1.3 6.1 1.5 0.4 1.5 0.6 2.7 0.4 2.8 -1.7 1.2 -40.9 18.6 -41.9 18.6 -0.5 0 -0.9 -1 -0.9 -2.2z"/>
  <path d="M316.8 158.5 c-1.5 -3.3 -1.5 -4.7 0 -17 1 -7.4 2.1 -13.5 2.7 -13.5 3.1 0.1 4 2 3.7 8.2 -0.5 10.6 -2.6 25.1 -3.7 25.5 -0.6 0.2 -1.8 -1.3 -2.7 -3.2z"/>
  <path d="M508 156.3 c-3 -0.6 -5.4 -3.4 -3.7 -4.5 0.7 -0.4 3.8 -1 7 -1.4 3.2 -0.4 6.4 -1.2 7 -1.8 1.3 -1.3 5.5 -1.5 7.3 -0.4 0.6 0.4 2.4 -0.1 4.1 -1.2 1.7 -1 4 -1.6 5.1 -1.4 1.7 0.5 6.2 -0.2 15.5 -2.2 2.1 -0.5 2.7 -0.3 2.7 1 0 0.9 -0.4 1.6 -1 1.6 -0.5 0 -0.7 0.6 -0.4 1.4 0.4 1 -1.1 2 -4.8 3.4 -9.7 3.6 -12.9 4.4 -14.9 3.9 -1.1 -0.3 -3.2 0.1 -4.7 0.9 -2.6 1.3 -13.5 1.7 -19.2 0.7z"/>
  <path d="M461 135 c0 -2.2 0.3 -4 0.8 -4 3.5 -0.1 66.1 -10.8 67.2 -11.5 1.3 -0.8 6.3 2.6 5.3 3.6 -0.4 0.4 -16.1 3.4 -34.8 6.5 -18.7 3.1 -34.2 5.8 -34.4 6 -0.2 0.2 0.2 1 0.9 1.9 1.1 1.3 0.8 1.5 -1.9 1.5 -3 0 -3.1 -0.2 -3.1 -4z"/>
  <path d="M452 122.6 c0 -0.8 -0.9 -1.8 -2 -2.1 -1.1 -0.3 -2 -1.3 -2 -2.2 0 -0.8 -0.5 -1.3 -1.2 -1.1 -2 0.7 -8 -6 -7.6 -8.5 0.2 -1.2 0.8 -2.1 1.3 -2 2.7 0.6 8.1 2.9 9.3 4.1 0.7 0.6 1.8 1.2 2.4 1.2 1.3 0 8.8 5.3 8.8 6.3 0 0.4 -1.1 1.2 -2.5 1.7 -1.4 0.5 -2.8 1.7 -3.1 2.5 -0.8 1.9 -3.4 2 -3.4 0.1z"/>
  <path d="M289.4 120.5 c-1.9 -1.4 -1.8 -1.4 0.4 -1.5 1.3 0 2.2 0.6 2.2 1.5 0 1.9 -0.1 1.9 -2.6 0z"/>
  <path d="M242.4 120.2 c0.3 -0.6 2 -2.1 3.6 -3.2 2.9 -2.1 3 -2.1 3 -0.2 0 1.1 -0.8 2.2 -1.7 2.5 -1 0.2 -2.7 0.8 -3.7 1.3 -1.3 0.5 -1.7 0.4 -1.2 -0.4z"/>
  <path d="M433.5 103 c-1 -1.1 -1.3 -2 -0.8 -2 1.3 0 3.8 2.9 3.1 3.5 -0.3 0.3 -1.3 -0.4 -2.3 -1.5z"/>
  <path d="M325 96.6 c0 -1.4 0.5 -2.8 1 -3.1 0.6 -0.3 1 -2.6 1 -4.9 0 -4.2 0.1 -4.4 3.6 -5.1 2 -0.3 4 -0.3 4.5 0.2 0.5 0.5 1 3.7 1.1 7.1 0.3 7.3 -0.4 8.2 -6.9 8.2 -3.9 0 -4.3 -0.2 -4.3 -2.4z"/>
  <path d="M255 76.2 c0 -2.7 0.3 -2.9 6.8 -4.1 3.7 -0.7 7.5 -1.5 8.5 -1.8 1.2 -0.3 1.7 0.1 1.7 1.4 0 1.4 -1.9 2.5 -7.7 4.6 -4.3 1.5 -8.1 2.7 -8.5 2.7 -0.5 0 -0.8 -1.3 -0.8 -2.8z"/>
 </g>
 <g fill="#a27931">
  <path d="M247.3 584.7 c-8.1 -2.4 -10.3 -3.5 -10.3 -4.9 0 -1.4 0.8 -1.8 3.4 -1.8 l3.4 0 0.7 -13.7 0.8 -13.7 -2.7 -2.2 c-3 -2.7 -3.7 -7 -0.8 -5.9 0.9 0.3 5.8 2 10.7 3.8 5 1.7 9.1 3.4 9.3 3.8 0.2 0.4 1.2 0.5 2.2 0.2 1.6 -0.4 2 0 2 1.9 0 1.3 0.9 3.4 2 4.6 2.4 2.5 2.6 4.2 0.5 4.2 -0.9 0 -1.5 0.9 -1.5 2.3 0 1.3 -0.4 2.7 -0.8 3.3 -0.5 0.5 -0.4 4.5 0.1 9 1.3 10.1 0.8 11.8 -3.3 10.9 -1.9 -0.4 -3 -0.3 -3 0.4 0 1.6 -1.3 1.3 -12.7 -2.2z"/>
  <path d="M307.3 546.7 c-4.4 -2.2 -6.3 -3.7 -6.3 -5 0 -1.4 0.3 -1.7 1.3 -1 0.6 0.6 3.5 2.7 6.2 4.8 7.6 5.6 7.5 5.7 -1.2 1.2z"/>
  <path d="M305.3 518.6 c-2.5 -3.1 -3.1 -12.6 -0.9 -12.6 1.9 0 5 4.5 4.1 6 -0.3 0.5 0.2 1 1.2 1.1 1 0 1.3 0.3 0.6 0.6 -0.7 0.2 -1.3 1.8 -1.3 3.3 0 3.9 -1.5 4.5 -3.7 1.6z"/>
  <path d="M326.3 510 c-3 -3.6 -4.4 -14 -2 -14 2 0 6.9 7.2 5.5 8.1 -0.5 0.3 -0.6 1.2 -0.3 2 0.3 0.8 0.2 2.6 -0.3 4 l-0.7 2.6 -2.2 -2.7z"/>
  <path d="M253.5 491.3 c-8.7 -18.1 -12.5 -36.5 -12.6 -61 0 -16.5 1.3 -25.9 5.3 -37.3 3.4 -9.8 9.6 -22 11.1 -22 0.9 0 0.6 5.2 -0.9 12.8 -0.6 3.1 -0.5 3.2 2.5 3.2 1.7 0 3.1 0.3 3.1 0.6 0 0.3 -1.3 2.4 -2.9 4.7 -6.1 8.9 -13.1 27.3 -13.1 34.3 0 1.5 -0.6 2.4 -1.5 2.4 -1.2 0 -1.5 1.4 -1.5 7 0 5.6 0.3 7 1.5 7 0.8 0 1.5 0.7 1.5 1.5 0 0.8 -0.4 1.5 -1 1.5 -0.5 0 -1 0.5 -1 1 0 0.6 0.6 1 1.3 1 0.7 0 2.1 3.8 3.5 9.2 1.3 5.1 4.4 13.5 7.2 19 3.1 6.2 4.4 9.8 3.5 9.8 -1 0 -1.1 1.6 -0.7 6.5 0.3 4 0.1 6.5 -0.5 6.5 -0.6 0 -2.7 -3.5 -4.8 -7.7z"/>
  <path d="M285.9 481.8 c-1.9 -7.1 -2.3 -10.5 -2.2 -23.8 0.1 -13.3 0.4 -16.9 2.6 -25.2 3.2 -12 5.1 -15.7 4 -7.8 -1 6.7 -1 25.7 -0.1 48.3 0.6 13.6 0.4 16.7 -0.6 16.7 -0.9 0 -2.3 -3.2 -3.7 -8.2z"/>
  <path d="M102.3 477.7 c-15.4 -23.4 -23.7 -41.2 -33.9 -72.7 -0.8 -2.5 -1.7 -6.3 -1.9 -8.4 -0.3 -2.2 -1.2 -6.4 -2 -9.5 -3.6 -14 -5.4 -36 -5.5 -67.6 -0.1 -26.2 -0.1 -25 1 -30 0.5 -2.2 1.4 -7.4 2 -11.5 3.3 -20.5 9.9 -43 17.7 -60.3 7.3 -16.2 19.4 -37.2 24.9 -43.5 l2.3 -2.7 0.1 3.7 c0 2 -0.3 3.8 -0.7 4 -2.2 0.9 -6.3 10.9 -6.3 15.2 0 2.5 -0.5 9 -1.1 14.4 -0.6 5.5 -0.9 11.2 -0.7 12.8 0.4 2.8 0.4 2.8 2.8 -1.9 2.1 -4.2 2.8 -4.7 5.7 -4.7 3.7 0 4 0.8 1.8 5.3 -3.2 7 -8.5 22 -11.3 32.3 -12.9 46.8 -9.8 102.7 8.2 149.9 4.4 11.3 4.3 10.7 0.5 10.3 -2.7 -0.2 -3.5 -0.8 -3.7 -2.7 -0.2 -1.3 -1 -3 -1.7 -3.8 -2.9 -2.8 -3.1 14.4 -0.7 47.7 0.6 8.5 1.1 10.2 4.5 16.1 3.4 6.1 5.1 13.9 2.9 13.9 -0.4 0 -2.6 -2.8 -4.9 -6.3z"/>
  <path d="M307.7 476.8 c-5.7 -18.7 -4.5 -47.5 2.6 -63.9 l1.6 -3.4 -0.7 5 c-0.6 4.4 -0.9 29.6 -0.5 41 0.1 2.2 0.1 5.8 0 8 0 2.2 0.3 7.3 0.8 11.3 0.7 6 0.5 7.2 -0.7 7.2 -0.9 0 -2.1 -2.1 -3.1 -5.2z"/>
  <path d="M538 466.6 c0 -8.9 -0.4 -13.5 -1 -13.1 -0.5 0.3 -1 0.2 -1 -0.2 0 -1 5.9 -10.5 6.9 -11.3 0.4 -0.3 1.9 -2.7 3.2 -5.5 1.4 -2.7 5.9 -11.5 10.1 -19.5 8.2 -15.4 16.7 -34.8 22.9 -52 l3.8 -10.5 0 7.7 c0.2 24.2 -7.9 57.6 -20.4 84.6 -3.8 8.2 -5.2 10.2 -6.9 10.2 -1.7 0 -1.8 0.2 -0.6 1 1.2 0.8 1.2 1 -0.5 1.1 -1.1 0 -1.4 0.3 -0.7 0.6 2 0.8 1.4 2.3 -1 2.3 -1.9 0 -2 0.2 -0.8 1 1.3 0.9 1.3 1 0 1 -1.5 0 -7 6.1 -7 7.7 0 0.4 -1.6 2.6 -3.5 4.7 l-3.5 4 0 -13.8z"/>
  <path d="M524.3 474 c-3.1 -1.2 -2.9 -2.4 0.2 -1.6 1.8 0.5 2.3 0.3 1.9 -0.7 -0.3 -0.8 0.7 -2.2 2.1 -3.3 2.8 -2.1 3.2 -3.9 1 -4.8 -2 -0.7 -1.9 -2.6 0.1 -2.6 4.9 0 6.1 8.5 1.8 11.9 -2.9 2.3 -3.8 2.4 -7.1 1.1z"/>
  <path d="M257.6 452.8 c-2.6 -9.7 -1.2 -39.3 2 -40.5 2.4 -0.9 4.4 1.7 4.4 5.8 0 3.3 -0.3 3.9 -2.2 3.9 -2.1 0 -2.1 0.1 -1.5 16.5 0.4 13.3 0.3 16.5 -0.8 16.5 -0.7 0 -1.5 -1 -1.9 -2.2z"/>
  <path d="M221.5 440.8 c-2.4 -10.7 -3.4 -23.2 -2.5 -32.3 1.1 -10.3 2.9 -17.5 4.5 -17.5 0.9 0 1.2 4.9 1.1 20.8 -0.1 11.4 0.3 24.2 0.8 28.5 0.8 6.7 0.7 7.7 -0.7 7.7 -1.1 0 -2 -2 -3.2 -7.2z"/>
  <path d="M259.4 409.4 c0.3 -0.9 0.9 -2.7 1.2 -4 1 -4 3.4 -2.9 3.4 1.6 0 3.6 -0.2 4 -2.6 4 -2 0 -2.5 -0.4 -2 -1.6z"/>
  <path d="M306.3 390.3 c0.4 -3.8 0.7 -21.7 0.7 -39.9 l0 -33.1 3.8 -2.7 c2.1 -1.4 4.4 -2.6 5 -2.6 1 0 1.2 8.6 0.9 38.3 -0.3 21 -0.5 38.9 -0.7 39.7 -0.2 1.7 -7.1 7 -9.1 7 -0.9 0 -1 -1.7 -0.6 -6.7z"/>
  <path d="M236.3 371.3 c-2.2 -0.8 -1.5 -7 1.2 -10 2.3 -2.7 2.4 -2.7 2.5 -0.6 0 1.2 0.6 2.4 1.3 2.6 0.7 0.3 0.5 0.6 -0.5 0.6 -2 0.1 -2.5 2.7 -0.7 3.3 0.9 0.3 0.9 1 0 2.6 -1.2 2.2 -1.6 2.4 -3.8 1.5z"/>
  <path d="M418 337.5 c0 -1.8 0.4 -2.3 1.5 -1.9 0.8 0.4 1.5 1.2 1.5 1.9 0 0.7 -0.7 1.5 -1.5 1.9 -1.1 0.4 -1.5 -0.1 -1.5 -1.9z"/>
  <path d="M422 336.9 c0 -1 -0.4 -1.9 -1 -1.9 -0.6 0 -0.9 -4.8 -0.7 -12.4 l0.2 -12.3 3.7 3.6 c2 2 3.1 3.7 2.5 3.9 -1.6 0.4 -5.7 8.2 -5.7 10.9 0 1.7 0.4 2 2.3 1.6 2 -0.5 2 -0.4 0.5 0.8 -1.4 1.1 -1.5 1.7 -0.5 3 0.7 0.9 1.7 1.8 2.4 2 0.7 0.2 0.1 0.9 -1.2 1.6 -2.2 1 -2.5 0.9 -2.5 -0.8z"/>
  <path d="M418.6 291.3 c-1 -1 -0.7 -9.3 0.4 -9.3 0.6 0 1 -3.5 1 -8.4 l0 -8.5 4.8 2.1 c8.9 3.8 12.7 9.7 10.3 15.6 -1.4 3.3 -7.4 7.4 -9.6 6.6 -0.8 -0.4 -2.6 0.1 -3.9 0.9 -1.3 0.9 -2.6 1.3 -3 1z"/>
  <path d="M285 262.1 c-2.4 -0.7 -4.3 -5.1 -2.1 -5.1 0.5 0 1.3 -3.5 1.6 -7.9 0.7 -7.7 0.8 -7.9 4.2 -9.5 2 -0.9 3.8 -1.4 4.1 -1.2 0.9 0.9 -1.8 20.7 -3.1 22.7 -0.7 1.1 -1.4 1.9 -1.7 1.8 -0.3 -0.1 -1.6 -0.4 -3 -0.8z"/>
  <path d="M254.8 250.4 c-3.8 -2 -3.5 -3.1 0.7 -3 2.9 0.1 3.5 0.5 3.5 2.4 0 2.6 -0.5 2.7 -4.2 0.6z"/>
  <path d="M500.3 222.8 c-1.6 -1.7 -3.5 -8.7 -7.9 -28.8 -6.7 -30.8 -7.2 -34 -5.3 -34 1.7 0 3.4 1.2 3.6 2.5 0 0.6 2.7 12.7 5.8 27 3.1 14.3 6 27.6 6.5 29.6 1 5 -0.1 6.5 -2.7 3.7z"/>
  <path d="M488.1 206.5 c-2.9 -6.1 -5.1 -15 -5.1 -20.2 0 -3.5 0.4 -4.3 1.8 -4.3 1.4 0 2.1 1.7 3.5 8.4 0.9 4.6 1.7 9.3 1.7 10.5 0 1.1 0.5 2.1 1 2.1 0.6 0 1 1.8 1 4 0 2.2 -0.4 4 -0.9 4 -0.5 0 -1.8 -2 -3 -4.5z"/>
  <path d="M275.3 208.3 c-3.1 -1.6 -4.5 -4.7 -2.3 -5.5 0.5 -0.1 1.5 -5.1 2.1 -11 l1.2 -10.6 3.5 -0.7 c1.9 -0.3 3.8 -0.3 4.3 0.2 0.9 1 -2.1 26.4 -3.4 28.1 -1.2 1.5 -1.4 1.5 -5.4 -0.5z"/>
  <path d="M234 195.9 c0 -0.8 5.8 -3.9 7.5 -3.9 0.3 0 0.5 1.1 0.5 2.5 0 2.3 -0.4 2.5 -4 2.5 -2.2 0 -4 -0.5 -4 -1.1z"/>
  <path d="M370.6 183.5 c-0.9 -1.3 -1.6 -3.1 -1.6 -3.9 0 -2.1 1.7 -2.9 2.4 -1.1 0.3 0.8 1.2 1.5 2 1.5 1.8 0 2.9 4.2 1.3 5.2 -1.9 1.2 -2.3 1 -4.1 -1.7z"/>
  <path d="M429.4 167.8 c0.3 -1.3 0.6 -3 0.6 -3.9 0 -1.1 4.7 -3.8 14.8 -8.4 8.1 -3.7 16.2 -7.6 18 -8.6 4.6 -2.7 7 -2.4 7.8 0.7 1 3.7 0.7 3.9 -31 18 -5.4 2.4 -10.1 4.4 -10.4 4.4 -0.2 0 -0.2 -1 0.2 -2.2z"/>
  <path d="M314.1 153.2 c-1.8 -3.6 -1.8 -4.1 -0.2 -15.2 l1.6 -11.6 2.7 1 c1.5 0.5 2.9 1.7 3 2.5 0.4 1.6 -1.8 20.6 -2.7 24.9 -0.8 3.2 -2.2 2.7 -4.4 -1.6z"/>
  <path d="M523.3 154.8 c-2.9 -1.4 -3 -2.8 -0.2 -2.8 1.1 0 2.8 -0.4 3.7 -0.9 0.9 -0.4 2.9 -1.1 4.5 -1.5 2.1 -0.5 2.7 -0.3 2.7 0.9 0 0.9 0.6 1.5 1.3 1.4 5.7 -0.7 4.6 1.7 -1.3 3 -6.1 1.3 -7.8 1.3 -10.7 -0.1z"/>
  <path d="M459.4 136.6 c-0.3 -0.8 -0.4 -2.7 -0.2 -4.2 l0.3 -2.7 34.5 -5.8 c33.7 -5.6 34.6 -5.7 37.3 -4 2.6 1.6 2.7 1.9 1 2.5 -1.8 0.7 -40 7.4 -58.2 10.2 -5.2 0.8 -9.7 1.7 -9.9 1.9 -0.3 0.3 0.1 1.1 0.8 2 1.1 1.3 0.8 1.5 -1.9 1.5 -1.8 0 -3.4 -0.6 -3.7 -1.4z"/>
  <path d="M446.9 129.2 c1.1 -1.6 2.7 -3.5 3.6 -4.2 0.8 -0.7 1.5 -2.3 1.5 -3.5 0 -3.2 2.5 -4.9 6.8 -4.8 2.1 0.1 6 -0.7 8.8 -1.7 14.2 -5.2 37.4 -6.7 37.4 -2.5 0 0.9 -2 1.6 -5.7 2 -3.2 0.3 -11.9 1.8 -19.3 3.2 -7.4 1.3 -15.4 2.8 -17.7 3.2 -5.3 1 -7.3 2.6 -7.3 6.1 0 2.9 -3.1 5 -7.6 5 l-2.5 0 2 -2.8z"/>
  <path d="M291.6 122.4 c-3.2 -2.9 -3 -3.8 0.8 -2.8 1.9 0.4 2.6 1.3 2.6 3 0 2.9 0.2 2.9 -3.4 -0.2z"/>
  <path d="M245.7 118.4 c-0.8 -0.9 10.7 -8.4 12.8 -8.4 0.9 0 1.5 1 1.5 2.3 0 1.9 -1 2.7 -5.7 4.3 -7.9 2.6 -7.8 2.6 -8.6 1.8z"/>
  <path d="M316 97.8 c0 -1.4 0.7 -3.1 1.5 -3.8 1.7 -1.4 2 -5 0.5 -5 -0.5 0 -1 -0.6 -1 -1.4 0 -1.6 1.4 -2.2 8.3 -3.2 l4.7 -0.6 0 3.3 c0 1.9 0.2 4.3 0.5 5.4 0.9 3.6 -2.8 6.6 -9 7.2 -5.4 0.6 -5.5 0.5 -5.5 -1.9z"/>
  <path d="M238.1 83.8 c0 -4.7 3.7 -7.1 14.5 -9.7 5 -1.1 9.4 -2.1 9.8 -2.1 1.5 0 0.4 1.8 -1.9 3 -1.4 0.7 -2.5 1.8 -2.5 2.4 0 0.6 -3.2 2.5 -7.2 4.1 -3.9 1.7 -8.4 3.6 -10 4.3 -2.8 1.2 -2.8 1.2 -2.7 -2z"/>
 </g>
 <g fill="#ae8439">
  <path d="M241 582.3 c0 -0.5 -1.2 -0.9 -2.8 -0.9 -4.1 -0.2 -12.2 -4.1 -12.2 -5.9 0 -1.1 1 -1.5 3.6 -1.5 l3.6 0 -0.4 -14.1 -0.3 -14.2 -3.3 -2.7 c-2.1 -1.7 -3.2 -3.5 -3.2 -5.3 l0 -2.6 7.8 3.6 c4.2 1.9 9.2 4.6 11 6 3.1 2.3 3.2 2.7 3.2 9.2 0 3.7 -0.3 11.6 -0.7 17.5 -0.6 9.7 -0.8 10.6 -2.5 10.1 -1 -0.4 -1.8 -0.2 -1.8 0.4 0 0.6 -0.4 1.1 -1 1.1 -0.5 0 -1 -0.3 -1 -0.7z"/>
  <path d="M254 562.5 c0 -0.8 0.5 -1.5 1 -1.5 0.6 0 1 0.7 1 1.5 0 0.8 -0.4 1.5 -1 1.5 -0.5 0 -1 -0.7 -1 -1.5z"/>
  <path d="M300.7 543.2 c-1.5 -0.9 -2.7 -2.5 -2.7 -3.4 0 -2.4 0.7 -2.3 4 0.6 3.6 2.9 2.6 5.1 -1.3 2.8z"/>
  <path d="M143.8 526 c-2.1 -1.7 -3.8 -3.6 -3.8 -4.1 0 -0.5 1.6 -0.9 3.5 -0.9 3.9 0 4.8 1.2 4.3 5.4 l-0.3 2.7 -3.7 -3.1z"/>
  <path d="M303.4 516.2 c-1.4 -1.9 -1.8 -4 -1.6 -7.4 0.4 -5.4 2 -6.3 4.6 -2.3 0.9 1.4 1.2 2.5 0.7 2.5 -0.4 0 -0.6 2 -0.4 4.4 0.6 5.3 -0.7 6.5 -3.3 2.8z"/>
  <path d="M267.9 514.4 c-3.3 -3.8 -11.9 -17.7 -11.9 -19.3 0 -0.9 -0.9 -4.2 -2 -7.4 -1.1 -3.1 -2 -6.9 -2 -8.4 l0.1 -2.8 2.8 3.3 c1.5 1.7 3.2 3.2 3.7 3.2 0.5 0.1 3.3 3.5 6.2 7.8 5.2 7.6 5.2 7.7 2.7 8 -2.2 0.3 -2.4 0.7 -1.8 3 0.3 1.5 1 2.9 1.5 3 0.4 0.2 0.8 1 0.8 1.7 0 0.7 0.5 1.5 1.1 1.7 0.6 0.2 0.9 2.1 0.7 4.2 -0.3 3.7 -0.4 3.7 -1.9 2z"/>
  <path d="M124.2 505.9 c-11 -12.5 -16.6 -20.4 -22 -30.9 -4.7 -9.1 -4.9 -10 -5.8 -21 -0.5 -6.3 -0.9 -24.1 -1 -39.5 -0.1 -15.4 -0.4 -29.3 -0.6 -31 -0.3 -1.6 -0.3 -2.2 -0.1 -1.2 0.2 0.9 0.9 1.7 1.4 1.7 0.5 0 0.8 0.3 0.7 0.8 -0.5 1.9 2.5 8.2 4 8.2 1.4 0 1.4 0.2 0.3 0.9 -1.2 0.8 -1.2 1.6 0.3 5.5 1 2.5 2.4 4.6 3.1 4.6 0.7 0 1.5 0.7 1.9 1.5 0.3 0.8 0.1 1.5 -0.4 1.5 -1.8 0 -1 2.2 1 2.7 1.1 0.3 2 1 2 1.5 0 1.8 10.9 23.3 15.9 31.3 l4.9 8 -3.1 0.3 c-2.1 0.3 -3.6 -0.2 -4.5 -1.5 -1.2 -1.6 -1.4 0.7 -1 17.2 0.3 10.5 0.2 20.1 -0.2 21.5 -0.4 1.8 0.2 3.9 2.2 7.3 1.5 2.6 2.8 5.9 2.8 7.2 0 2 0.5 2.5 2.5 2.5 3 0 3.8 1.5 3.3 6 l-0.3 3.2 -7.3 -8.3z"/>
  <path d="M324.3 507.6 c-2.7 -3.4 -3.4 -13.6 -0.9 -13.6 2 0 4.9 4.7 3.3 5.3 -0.6 0.3 -0.3 0.6 0.8 0.6 1.3 0.1 1.6 0.4 0.8 0.9 -0.6 0.4 -1.3 2.7 -1.5 5.2 l-0.3 4.5 -2.2 -2.9z"/>
  <path d="M290.3 494.4 c-2.3 -5.1 -2.6 -7 -2.7 -17.8 -0.1 -10.2 0.1 -12.1 1.5 -12.4 1.8 -0.3 3.8 8.4 4.3 18.8 0.2 3.6 0.7 8.9 1.1 11.8 1 7.1 -0.8 6.9 -4.2 -0.4z"/>
  <path d="M271.6 492.1 c-2 -3.7 -2 -4.1 -0.2 -4.1 0.8 0 1.6 1.4 1.9 3.3 0.6 4.3 0.2 4.5 -1.7 0.8z"/>
  <path d="M311.5 486.9 c-3 -5.8 -5.4 -24 -3.9 -29.6 0.7 -2.7 3.1 -3 3.8 -0.5 1.3 4.9 2 9.2 2.1 14.2 0.1 3 0.5 8.5 1 12.3 0.9 7.5 -0.3 8.9 -3 3.6z"/>
  <path d="M264.8 477.3 c-5.3 -12.1 -7 -20.9 -7.5 -40.7 l-0.6 -18.8 2.2 0.7 c2.4 0.7 2.8 -0.7 0.6 -2.5 -1.5 -1.2 -1.4 -2.9 0.4 -7.5 0.4 -1.1 1.7 -4.7 2.7 -8 1.7 -5.4 2.2 -6 4.4 -5.7 1.3 0.1 2.9 0.7 3.3 1.1 1.1 1.1 -1.2 21.9 -2.4 22.7 -0.5 0.3 -0.9 1.8 -0.9 3.5 0 1.6 -0.4 2.9 -1 2.9 -0.6 0 -1 6.8 -1 18.3 0 15.2 0.3 19.5 2 25.5 3.4 12.4 2 18 -2.2 8.5z"/>
  <path d="M224.8 451.8 c-3.1 -10 -4.1 -21.7 -3.6 -40.8 0.4 -15 0.9 -19.4 2.4 -23.4 1 -2.7 2.5 -5.1 3.3 -5.4 1.2 -0.4 1.3 0.6 0.7 5.4 -0.4 3.3 -0.9 15.9 -1.2 28.1 -0.5 20.3 0.1 30.4 2.3 39.1 0.3 1.5 0.1 2.2 -0.9 2.2 -0.9 0 -2.1 -2.1 -3 -5.2z"/>
  <path d="M302.2 400.2 c-1 -0.3 -1.1 -2.6 -0.6 -10.3 0.6 -8.5 0.5 -9.9 -0.8 -9.9 -1.1 0 -1.7 -1.5 -2.2 -5 -0.8 -6.3 0.1 -12 2.1 -12 1.2 0 1.4 -3.3 1.2 -20.7 l-0.1 -20.7 3.6 -2.9 c2 -1.6 3.9 -2.7 4.2 -2.5 0.7 0.8 0.8 9.2 0.5 45.4 l-0.3 34.1 -3.1 2.5 c-1.8 1.3 -3.8 2.3 -4.5 2z"/>
  <path d="M253 387.1 c0 -4.4 0.7 -8.9 1.8 -11.9 1.9 -4.9 9.3 -16.5 11.3 -17.8 1.4 -0.9 0.7 5.8 -1.1 10.2 -0.7 1.7 -1 4.2 -0.6 5.7 0.5 2.2 1.2 2.7 3.6 2.7 3.6 0 3.8 0.9 0.5 4 -1.3 1.2 -3.6 4 -5.1 6.1 -1.6 2.4 -3.5 3.9 -4.8 4 -1.1 0 -1.5 0.3 -0.8 0.6 0.6 0.2 1.2 0.9 1.2 1.4 0 0.4 -0.7 0.6 -1.5 0.3 -0.8 -0.4 -2.2 -0.1 -3 0.6 -1.3 1.1 -1.5 0.3 -1.5 -5.9z"/>
  <path d="M234.3 375.3 c-2.1 -0.8 -1.5 -7.3 1 -11.2 l2.2 -3.6 0.3 3.5 c0.2 1.9 0.9 3.8 1.5 4.2 0.8 0.5 0.6 1.7 -0.6 4.2 -1.7 3.6 -2.1 3.9 -4.4 2.9z"/>
  <path d="M281.7 261.3 c-1.6 -0.4 -1.8 -1.1 -1.3 -4.1 0.3 -2.1 0.8 -6.3 1.2 -9.4 0.6 -5.2 0.9 -5.8 3.7 -6.8 1.7 -0.5 3.2 -0.9 3.3 -0.7 0.9 0.8 -2 19.3 -3.2 20.4 -0.7 0.7 -1.4 1.2 -1.6 1.2 -0.2 -0.1 -1.1 -0.3 -2.1 -0.6z"/>
  <path d="M258.8 252.4 c-4.5 -2.4 -3.2 -5.4 2.3 -5.4 1.5 0 1.9 0.7 1.9 3.5 0 3.9 -0.3 4.1 -4.2 1.9z"/>
  <path d="M95.6 223.2 c0.1 -10.3 0.5 -22.7 0.9 -27.7 0.6 -8.4 0.9 -9.5 5.1 -16.5 4.6 -7.6 11.8 -17 21.1 -27.6 l5.2 -5.9 0.1 3.8 c0 2.9 -0.5 4 -1.8 4.4 -1.5 0.3 -2.8 2.8 -4.2 7.8 -0.1 0.6 -0.2 4.9 -0.1 9.8 0.1 7 0.4 8.7 1.6 8.7 0.9 0 1.5 -0.9 1.5 -2.5 0 -2.2 0.4 -2.5 4 -2.5 2.2 0 4 0.2 4 0.4 0 0.2 -3 5.3 -6.7 11.3 -3.8 6.1 -9 15.5 -11.8 21.1 -3.3 6.6 -5.6 10.1 -6.6 10.2 -2 0 -3.3 2.7 -1.6 3.4 0.7 0.2 0.5 0.5 -0.4 0.5 -1.6 0.1 -3.3 3.2 -6.9 13.3 -1.2 3.2 -2.5 6 -2.9 6.2 -0.4 0.3 -0.7 -7.9 -0.5 -18.2z"/>
  <path d="M499.2 221.7 c-1.8 -1.9 -3.4 -7.5 -7.8 -28.3 -6.2 -28.9 -6.7 -32.7 -4.3 -33.2 1.1 -0.2 1.8 0.5 2.1 2 0.3 1.3 3.3 15.1 6.7 30.8 3.4 15.6 6 29 5.9 29.8 -0.2 1 -1 0.6 -2.6 -1.1z"/>
  <path d="M489.1 207.8 c-2.3 -5.1 -6.1 -23.2 -6.1 -28.8 0 -3.3 0.3 -4 2 -4 1.5 0 2 0.7 2 2.6 0 1.4 1.4 8.2 3 15.1 3.1 12.9 3.8 19.3 2 19.3 -0.5 0 -1.8 -1.9 -2.9 -4.2z"/>
  <path d="M271.7 206.6 c-2.4 -0.9 -2.7 -1.4 -2.2 -3.6 1.5 -6.2 2.4 -11.9 2.4 -16.1 0.1 -5 1 -5.9 5.7 -5.9 2.3 0 2.4 0.3 1.9 3.3 -0.3 1.7 -1 7.2 -1.5 12.1 -1.2 10.1 -2.2 11.7 -6.3 10.2z"/>
  <path d="M242.3 197.3 c-4.7 -0.6 -4.5 -3.8 0.3 -5.8 4.4 -1.8 6.4 -0.7 6.4 3.6 0 3.1 0.1 3 -6.7 2.2z"/>
  <path d="M430.1 164.3 c0.1 -4.2 1.9 -5.6 13.4 -10.9 6.6 -3 14.3 -6.6 17.1 -8 6.5 -3.1 9.2 -3.1 9.6 -0.1 0.4 2.6 0.7 2.4 -20.5 12.2 -19.3 9 -19.7 9.2 -19.6 6.8z"/>
  <path d="M311.7 148.6 c-1.3 -2.9 -1.4 -4.6 -0.7 -9.3 0.6 -3.2 1 -7.7 1 -10 l0 -4.2 3 1 c3.5 1.3 3.6 2.3 1.9 14.6 -1.7 12.6 -2.4 13.7 -5.2 7.9z"/>
  <path d="M443.1 134.4 c1.7 -2.6 4.5 -5.4 6 -6.3 2 -1.1 2.9 -2.4 2.9 -4.2 0 -3.4 2 -5 7.3 -6 2.3 -0.4 10.1 -1.8 17.2 -3.2 21.8 -4.2 35.5 -4.7 35.5 -1.3 0 0.9 -2.6 1.7 -8.2 2.6 -11.1 1.5 -42.9 6.9 -44.9 7.5 -1.1 0.4 -1.5 1.3 -1.2 2.8 l0.5 2.3 34.1 -5.7 c32.2 -5.4 34.3 -5.7 37.1 -4.2 2.8 1.5 2.9 1.6 1.1 2.3 -1.1 0.4 -16.4 3.1 -34 6 -17.6 2.9 -32.6 5.4 -33.4 5.6 -1.1 0.4 -0.8 1 0.9 2.9 l2.3 2.5 -3.6 0 c-3.1 0 -3.8 -0.4 -4.3 -2.5 -0.3 -1.4 -1.3 -2.5 -2 -2.5 -1.9 0 -9.1 3.6 -9.9 5 -0.3 0.5 -2 1 -3.6 1 l-3 0 3.2 -4.6z"/>
  <path d="M295.3 125.8 c-4.3 -4.4 -4.3 -6.3 -0.1 -5.4 4 0.8 4 0.7 3.6 5.1 l-0.3 3.6 -3.2 -3.3z"/>
  <path d="M257 114.1 c0 -0.6 -0.7 -1.1 -1.6 -1.1 -2.5 0 -0.8 -1.6 5.3 -5 3.5 -2 5.9 -2.8 6.1 -2.1 0.2 0.6 1.5 1.1 2.8 1.1 1.7 0 2.4 0.6 2.4 1.8 0 1.8 -1 2.2 -13.7 6 -0.7 0.2 -1.3 -0.1 -1.3 -0.7z"/>
  <path d="M310 98.1 c0 -1.7 0.4 -3.1 0.9 -3.1 1.4 0 2.3 -3.2 1.1 -4.4 -2 -2 -0.9 -3.5 3.3 -4.4 6 -1.2 6.7 -0.7 6.7 4.7 -0.1 6 -2.6 9.1 -8 9.8 -3.9 0.6 -4 0.5 -4 -2.6z"/>
  <path d="M227 89.2 c0 -1.6 0.7 -4.2 1.5 -5.9 1.3 -2.5 2.7 -3.4 8.8 -5.2 11.4 -3.3 13.4 -2.7 7.4 2.6 -1.8 1.6 -3.2 3.3 -3 3.9 0.2 0.7 -7.5 4.7 -13.9 7.2 -0.4 0.2 -0.8 -1 -0.8 -2.6z"/>
 </g>
 <g fill="#b88e40">
  <path d="M220.7 574.9 c-6.4 -2.7 -8.3 -5.2 -4.7 -6.2 1.9 -0.5 2 -1.2 2 -15.5 0 -9 -0.4 -15.3 -1 -15.7 -0.5 -0.3 -1 -2.2 -1 -4 l0 -3.5 6 3.1 c3.4 1.7 7.7 4.6 9.8 6.5 l3.7 3.4 0.3 17.2 0.4 17.3 -4.7 0 c-2.8 0 -7.1 -1 -10.8 -2.6z"/>
  <path d="M297.2 540.8 c-2.1 -1.3 -3.2 -2.8 -3.2 -4.4 0 -3.2 1 -3 4.8 0.9 4 4.2 3 6.5 -1.6 3.5z"/>
  <path d="M153.1 534 c-3.4 -2.8 -6.8 -6.2 -7.7 -7.6 -0.9 -1.3 -1.9 -2.2 -2.2 -1.9 -0.8 0.7 -14.2 -12.6 -14.2 -14.1 0 -0.6 -1.1 -1.9 -2.4 -2.7 -1.3 -0.9 -3.5 -3.7 -4.8 -6.4 -1.4 -2.6 -3.4 -6.3 -4.4 -8 -1.7 -2.8 -1.7 -3.5 -0.5 -5.4 1 -1.7 1.3 -7.5 1.2 -26.1 -0.2 -23.8 0.3 -27.3 3.1 -21.3 0.6 1.4 1.8 2.5 2.5 2.5 0.8 0 1.1 0.5 0.8 1 -0.3 0.6 0.2 1 1.2 1 1.5 0 1.6 0.2 0.3 1 -1.3 0.8 -1.2 1.1 0.6 1.6 1.2 0.3 2.6 1.5 3.1 2.7 1.3 2.7 13.2 18.6 18.6 24.7 3.9 4.5 3.9 4.5 1.4 4.8 -2.2 0.3 -2.5 0.8 -3.1 7 -0.3 3.7 -0.6 10.9 -0.6 16 l0 9.2 3.9 0 c5.5 0 7.1 0.8 7.1 3.6 0 1.5 0.6 2.4 1.5 2.4 2.3 0 1.9 6.9 -0.5 10 -2.5 3.2 -2.5 4 0 4 1.6 0 2 0.7 2 3.5 0 1.9 -0.2 3.5 -0.4 3.5 -0.3 0 -3.2 -2.3 -6.5 -5z"/>
  <path d="M272.3 519.5 c-2.9 -3.2 -5.3 -6.5 -5.3 -7.2 0 -0.7 -0.4 -1.3 -1 -1.3 -0.5 0 -1 -0.7 -1 -1.5 0 -0.8 -0.4 -1.5 -0.9 -1.5 -1.5 0 -2.8 -9.1 -2.2 -15.4 0.1 -0.5 1.1 0 2.4 1.2 1.3 1.2 2.9 2.2 3.5 2.2 0.7 0 1.2 0.4 1.2 0.8 0 0.5 1.8 2.8 4 5.2 2.7 3 3.7 4.7 3 5.4 -1.5 1.5 -1.2 4.8 0.6 7.4 0.9 1.4 1.4 3.8 1.2 6.4 l-0.3 4.2 -5.2 -5.9z"/>
  <path d="M301.3 513.4 c-1 -1.6 -1.8 -5.2 -2 -8.6 -0.3 -5.2 -0.2 -5.9 1.4 -5.6 3 0.6 5 5.7 4.5 11.6 -0.4 5.8 -1.3 6.4 -3.9 2.6z"/>
  <path d="M322.5 505.3 c-1.1 -1.6 -2 -5.2 -2.2 -8.5 -0.4 -5.2 -0.2 -5.8 1.5 -5.8 2.5 0 3.3 2 3.8 8.9 0.4 7.3 -0.7 9.2 -3.1 5.4z"/>
  <path d="M294.4 502.9 c-2.9 -5.7 -4.4 -12.3 -4.4 -19.7 0 -6.2 0.2 -7.3 1.6 -7 1.9 0.4 4.4 6.7 4.9 12.3 0.2 2.2 0.6 7 1 10.8 0.9 7.5 -0.3 8.9 -3.1 3.6z"/>
  <path d="M273 495.9 c0 -0.8 -1.3 -3.9 -2.9 -6.9 -1.6 -3 -4.1 -9.8 -5.5 -15 -2.4 -8.7 -2.6 -11.3 -2.7 -30.4 -0.1 -15 0.1 -21 1 -21.5 0.6 -0.4 0.9 -1.5 0.5 -2.5 -0.4 -1 0.1 -2.5 1.1 -3.6 1.2 -1.4 1.6 -2.8 1.2 -4.9 -0.4 -1.8 -0.2 -3.1 0.5 -3.3 0.8 -0.3 0.7 -1.1 -0.1 -2.7 -1 -1.9 -1 -2.6 0.3 -4 2 -2.2 1 -3.4 -1.6 -2 -1.8 1 -1.9 0.8 -1.3 -1.3 1.1 -3.3 6.3 -13.5 9.3 -18 2.9 -4.5 2.2 -6.1 -1.3 -2.8 -1.3 1.2 -4 2.4 -5.9 2.6 -2.8 0.2 -3.5 -0.1 -4 -1.9 -1.1 -4.2 -0.6 -11.8 1 -15 2 -3.8 10.6 -14.7 11.6 -14.7 0.4 0 0.5 4.9 0.1 10.9 -0.4 7.6 -0.3 11 0.6 11.5 0.6 0.4 1.1 3.2 1.1 6.2 l0 5.4 4 0 4 0 0 4 c0 2.5 -0.5 4 -1.2 4.1 -0.7 0 -0.3 0.4 1 0.9 1.7 0.7 2.2 1.7 2.2 4.5 0 3.2 -0.2 3.5 -3 3.5 -2.7 0 -3 0.3 -3 3 0 1.7 -0.4 3 -1 3 -0.5 0 -1 0.7 -1 1.5 0 0.8 -0.6 1.5 -1.4 1.5 -1.7 0 -2.6 7 -2.6 20.3 0 8 0.3 9.7 1.5 9.7 1.8 0 1.8 0.1 0.4 3.7 -2.1 5.6 -4.9 22.5 -4.9 30.2 0 4.3 0.7 11.6 1.6 16.1 0.8 4.5 1.3 8.5 1 8.8 -0.3 0.3 -0.6 -0.1 -0.6 -0.9z"/>
  <path d="M314.6 492.8 c-2.4 -4 -4.5 -13.7 -4.6 -21 0 -4.9 0.2 -5.6 1.8 -5.1 2.8 0.7 5.4 9.6 5.9 20.1 0.2 5 0 9.2 -0.5 9.2 -0.4 0 -1.6 -1.4 -2.6 -3.2z"/>
  <path d="M228.2 460.5 c-2.4 -5 -2.8 -7.9 -1 -7.3 1.2 0.4 4 9.5 3.5 11.1 -0.1 0.5 -1.2 -1.2 -2.5 -3.8z"/>
  <path d="M107.5 416.9 c-0.9 -1.4 0 -2.2 1.8 -1.7 1.3 0.2 1.3 0.5 0.2 1.5 -1 0.9 -1.6 0.9 -2 0.2z"/>
  <path d="M260 413.3 c0 -1.7 1.9 -3.5 2.9 -2.9 1.8 1.2 1.2 3.6 -0.9 3.6 -1.1 0 -2 -0.3 -2 -0.7z"/>
  <path d="M223.7 407.3 c-1 -5.5 0.1 -19.8 2 -24.7 3 -8 4.3 -7.1 4.3 3 0 15.1 -4.6 30.7 -6.3 21.7z"/>
  <path d="M297.2 404.2 c-1 -0.3 -1.1 -2.5 -0.6 -9.3 0.7 -8.7 0.6 -8.9 -1.5 -8.9 -2 0 -2.1 -0.5 -2 -6.2 0.1 -10 1 -15.7 2.5 -17.3 1.2 -1.2 1.5 -4.9 1.4 -19.2 l-0.2 -17.7 3.3 -2.7 c1.9 -1.5 3.7 -2.5 4.1 -2.3 0.5 0.3 0.8 10.6 0.8 23 0 18.4 -0.2 22.4 -1.4 22.4 -0.7 0 -1.6 1.2 -1.9 2.6 -0.3 1.8 -0.1 2.4 0.9 2 2 -0.8 2.5 0.9 0.9 3 -1.9 2.5 -1.9 3.4 0.1 3.4 1.4 0 1.5 1.4 1.2 10 -0.1 5.5 0 10 0.5 10 1.7 0 0.5 1.8 -3 4.7 -2.1 1.6 -4.4 2.8 -5.1 2.5z"/>
  <path d="M232.1 379.1 c-1.8 -1.2 -0.8 -9 1.5 -12.7 2 -3 3.7 -1.4 2.7 2.4 -0.3 1.4 -0.1 2.7 0.7 3.2 1 0.6 0.9 1.5 -0.1 4.4 -1.3 3.7 -2.3 4.2 -4.8 2.7z"/>
  <path d="M277.8 260.3 c-2 -0.5 -2.3 -3.3 -0.9 -6.1 0.6 -0.9 1.3 -3.7 1.6 -6.2 0.5 -3.9 1 -4.7 3.5 -5.7 l3 -1.1 0 5.4 c0 3.1 -0.5 7.5 -1.1 10 -1.1 4.4 -1.8 4.8 -6.1 3.7z"/>
  <path d="M263.7 254.6 c-2.8 -1.2 -6.1 -5.9 -4.9 -7 0.3 -0.3 2.5 -0.6 4.9 -0.6 l4.3 0 0 4.5 c0 4.9 -0.1 4.9 -4.3 3.1z"/>
  <path d="M497.4 219.7 c-1.6 -1.8 -3.7 -4.2 -4.7 -5.4 -2.4 -2.8 -8.8 -30 -9 -38.3 -0.1 -6.4 0.7 -13.2 1.8 -15 1 -1.6 3.1 -1.1 3.1 0.8 0 0.9 2.9 14.9 6.3 31 3.5 16.2 6.1 29.6 5.8 29.8 -0.2 0.2 -1.7 -1.1 -3.3 -2.9z"/>
  <path d="M267.3 204.8 c-2.3 -1.1 -3.1 -4.2 -1.4 -5.2 0.8 -0.5 2.3 -9.5 2.5 -15.1 0.1 -1.3 1.1 -2.1 3.4 -2.6 1.8 -0.4 3.5 -0.3 3.8 0.2 0.7 1.2 -1.6 19.9 -2.8 22.2 -1 1.9 -2.3 2 -5.5 0.5z"/>
  <path d="M249.8 198.7 c-2.1 -0.6 -3.8 -1.6 -3.8 -2.3 0 -0.6 -0.7 -1.7 -1.5 -2.4 -1.9 -1.6 -1.1 -2.9 2.9 -4.5 7.7 -3.1 7.4 -3.3 7.4 4 0 3.6 -0.3 6.4 -0.6 6.4 -0.4 -0.1 -2.4 -0.6 -4.4 -1.2z"/>
  <path d="M118.8 174.8 c-0.5 -13.9 -0.4 -15.7 1.5 -19.3 2 -4 25.6 -28.3 29.6 -30.4 1.9 -1.1 2.1 -0.9 2.1 1.7 0 1.7 -1 3.8 -2.5 5.2 -1.8 1.7 -2.5 3.4 -2.5 6.2 0 2.2 -0.5 4.8 -1.1 6 -1.3 2.4 -0.5 3.5 1.5 1.9 0.8 -0.7 3.4 -1.1 5.7 -0.9 l4.2 0.3 -6.9 8 c-3.9 4.4 -9.6 11.7 -12.9 16.3 -4.1 5.7 -6.5 8.2 -7.9 8.2 -1.5 0 -1.7 0.3 -0.8 0.8 1.7 1.2 0.4 4.2 -1.8 4.2 -2.3 0 -3.5 1.6 -1.8 2.3 0.7 0.3 0.3 0.6 -0.9 0.6 -1.2 0.1 -2.4 0.9 -2.8 2.1 -1.5 4.7 -2.3 1 -2.7 -13.2z"/>
  <path d="M431.1 159.8 c0.5 -1.7 1.2 -3.5 1.6 -3.9 0.5 -0.4 7.3 -3.7 15.3 -7.4 8 -3.7 14.9 -7.1 15.5 -7.6 2 -1.9 5.3 -1 5.9 1.7 0.4 1.5 0.6 2.7 0.4 2.9 -0.4 0.3 -9 4.3 -25.5 11.9 -6.7 3.1 -12.6 5.6 -13.2 5.6 -0.6 0 -0.6 -1.1 0 -3.2z"/>
  <path d="M309.4 144.4 c-2 -3.5 -2 -4 -0.6 -11.3 0.8 -4.2 1.6 -7.7 1.7 -7.9 0.2 -0.2 1.3 0 2.7 0.3 2.4 0.6 2.4 0.7 1.6 9.3 -1.2 14.4 -1.9 15.6 -5.4 9.6z"/>
  <path d="M437 145.5 c0 -1.5 4.1 -8.3 6.2 -10.1 2.8 -2.6 8.1 -5.4 10.3 -5.4 1.9 0 1.9 -0.1 -0.2 -4.5 -1.9 -3.9 -1.7 -4.4 2.2 -5.1 10.3 -1.9 44 -7.3 48.7 -7.9 6.7 -0.8 15.8 1 15.8 3.1 0 0.8 0.6 1.1 1.5 0.8 1.7 -0.7 7.5 1.4 7.5 2.7 0 1.2 -1.3 1.4 -35 7 -17.3 2.8 -31.9 5.5 -32.3 5.9 -0.5 0.4 0.2 1.7 1.4 2.9 l2.3 2.1 -3.8 0 c-3.5 0 -12.7 3.9 -18 7.6 -2 1.4 -6.6 2 -6.6 0.9z m52.7 -23.7 c13.9 -2.3 25.1 -4.4 24.8 -4.6 -0.5 -0.5 -24.5 3.2 -40.5 6.4 -18.2 3.5 -11.6 2.8 15.7 -1.8z"/>
  <path d="M298.9 129.3 c-1.5 -1.5 -2.9 -4.1 -3.3 -5.7 -0.7 -2.8 -0.7 -2.9 3 -2.3 2 0.3 3.9 0.8 4.1 1.1 0.3 0.3 0.1 2.6 -0.3 5.1 l-0.9 4.6 -2.6 -2.8z"/>
  <path d="M263.2 110.6 l-2.3 -1.2 2.3 -2.1 c2 -1.8 13.9 -8.3 15.3 -8.3 0.3 0 0.5 0.9 0.5 2 0 1.6 0.7 2 3 2 2.2 0 3 0.5 3 1.8 0 1.5 -1.7 2.4 -7.4 4 -4.1 1.2 -8.2 1.9 -9.1 1.6 -0.9 -0.4 -2 -0.2 -2.4 0.4 -0.4 0.7 -1.3 0.7 -2.9 -0.2z"/>
  <path d="M305 97.8 c0 -2.4 -0.3 -5.2 -0.6 -6.4 -0.5 -1.8 0.1 -2.3 4 -3.4 2.5 -0.7 5.2 -1 6.1 -0.7 2 0.8 2 8 0 10.1 -0.8 0.8 -1.5 1.9 -1.5 2.4 0 0.8 -4.5 2.2 -7.1 2.2 -0.5 0 -0.9 -1.9 -0.9 -4.2z"/>
  <path d="M213 95.7 c0 -2.1 0.8 -4.1 1.9 -5.1 1 -0.9 1.7 -2.5 1.4 -3.5 -0.3 -1.3 1.1 -2.2 7.2 -4.4 4.1 -1.4 8.2 -2.4 8.9 -2.1 2.5 1 2.5 3.1 0.1 5.4 -1.3 1.2 -2.2 2.7 -1.9 3.4 0.3 1 -14.4 9.6 -16.6 9.6 -0.6 0 -1 -1.5 -1 -3.3z"/>
 </g>
 <g fill="#c19846">
  <path d="M219.1 573.1 c-0.1 -0.8 -0.7 -1.1 -1.6 -0.7 -2.2 0.8 -14.5 -5.3 -14.5 -7.2 0 -0.8 0.6 -2 1.4 -2.6 1.6 -1.2 2 -6.1 1.8 -20.8 -0.2 -8.4 -0.5 -10.1 -2.3 -11.9 -1.3 -1.3 -1.9 -3 -1.7 -4.8 l0.3 -2.8 8.1 4.6 c4.7 2.7 8.5 5.6 9.2 7 1.4 2.9 1.5 35.5 0.2 38.6 -0.5 1.1 -0.9 1.4 -0.9 0.6z"/>
  <path d="M169.5 546.4 c-4.9 -3.6 -9.8 -7.1 -10.7 -7.7 -1 -0.7 -1.8 -1.7 -1.8 -2.4 0 -0.7 -0.5 -1.2 -1.2 -1 -0.6 0.1 -1.7 -0.9 -2.4 -2.2 -0.7 -1.3 -2 -2.8 -2.8 -3.3 -2 -1.1 -2.1 -2.9 -0.1 -2.2 1.4 0.6 6.5 -4 6.5 -5.7 0 -1.5 -1.1 -1 -2.9 1.2 -1 1.2 -2.3 2 -3 1.8 -0.9 -0.3 -0.6 -1.2 0.8 -3.1 2.6 -3.3 2.7 -5.5 0.1 -6.3 -2.6 -0.8 -5.9 1.1 -7.1 4.2 -0.5 1.4 -1.2 2.3 -1.6 1.9 -0.5 -0.5 -0.4 -30.3 0.2 -37.8 0.2 -1.6 0.3 -4.1 0.4 -5.8 0.1 -2.8 0.2 -2.9 2.9 -1.7 1.6 0.7 9.8 7.8 18.2 16 l15.3 14.7 -4.6 0 -4.6 0 -0.6 4.4 c-1.1 7 -0.2 22.9 1.3 23.4 0.6 0.2 1.2 1.9 1.2 3.7 0 2.6 0.7 3.9 3.1 5.8 2.4 1.9 3 3 2.7 5.5 l-0.3 3.1 -9 -6.5z"/>
  <path d="M292.3 537.4 c-3.9 -3 -4.1 -4 -1.1 -4.7 2.9 -0.8 6.8 2.7 6.1 5.4 -0.7 2.5 -1.1 2.4 -5 -0.7z"/>
  <path d="M281.2 528.4 c-3.4 -3.1 -6.2 -6.2 -6.2 -7 0 -0.7 -0.9 -2.8 -1.9 -4.5 -1.1 -1.7 -1.7 -3.8 -1.4 -4.5 0.3 -0.8 0 -1.4 -0.6 -1.4 -1.2 0 -1.5 -3.9 -0.3 -5.5 0.6 -1 1.4 -1.1 4.9 -0.7 0.7 0.1 2.8 3.2 4.7 7 1.9 3.7 4.3 7.9 5.4 9.5 1.6 2.3 3.2 12.7 1.9 12.7 -0.2 0 -3.1 -2.5 -6.5 -5.6z"/>
  <path d="M148 520.6 c0 -0.9 0.7 -1.9 1.5 -2.3 2.5 -0.9 2.7 0.2 0.5 2.2 -1.8 1.7 -2 1.7 -2 0.1z"/>
  <path d="M298.5 509.2 c-3.4 -5.3 -5 -10.6 -5.4 -18 -0.2 -4.5 0 -5.2 1.6 -5.2 1.4 0 2.4 1.4 3.8 5.3 1 2.8 2.7 6.4 3.7 8 1.4 2 1.6 2.7 0.6 2.8 -0.7 0 -0.4 0.4 0.7 0.9 1.1 0.5 1.4 0.9 0.8 0.9 -0.8 0.1 -1.3 1.6 -1.3 3.9 0 6.2 -1.3 6.6 -4.5 1.4z"/>
  <path d="M318.7 499.5 c-3.6 -5.8 -5.3 -12.7 -4.5 -19 0.4 -3.7 2.5 -4.4 3.8 -1.1 0.5 1.5 2.3 5.3 3.9 8.6 1.9 3.8 2.6 6 1.8 6.1 -0.7 0 -0.3 0.4 0.8 0.9 1.1 0.5 1.4 0.9 0.8 0.9 -0.8 0.1 -1.3 1.5 -1.3 3.4 0 6.2 -1.5 6.3 -5.3 0.2z"/>
  <path d="M271.1 426.4 c0.1 -9.6 -0.1 -17.7 -0.4 -18.1 -0.4 -0.3 -0.7 -1.5 -0.7 -2.6 0 -1.5 0.5 -1.8 2.4 -1.3 2.1 0.5 2.3 0.3 1.8 -1.6 -0.4 -1.7 -0.2 -2 1.2 -1.5 1.5 0.6 1.5 0.2 -0.4 -2.8 -2.1 -3.4 -2.1 -3.7 -0.5 -5.5 0.9 -1 2.3 -1.6 3.1 -1.3 0.8 0.3 1.4 0 1.4 -0.5 0 -2.2 -2.2 -2.3 -5.5 -0.3 l-3.4 2 0.6 -4.7 c0.3 -2.6 1.5 -6.4 2.5 -8.6 1.9 -3.8 1.9 -3.8 0 -5.2 -2.4 -1.7 -3.4 -9.9 -2.2 -18.6 0.9 -5.9 1.2 -6.5 7.5 -12.7 l6.5 -6.6 0 3.3 c0 1.8 -0.5 4.2 -1 5.2 -0.6 1.2 -0.9 8.3 -0.8 17.7 0.3 14.8 0.4 15.6 1.8 12.8 0.8 -1.6 2.4 -3.4 3.6 -3.9 3.3 -1.5 4.1 -7.4 3.5 -25.5 l-0.6 -16.4 3.5 -2.8 c1.9 -1.6 3.8 -2.9 4.2 -2.9 0.5 0 0.8 9 0.8 20.1 0 16.5 -0.3 20.3 -1.5 21.5 -2 2 -2 4.5 0 3.8 1.1 -0.5 1.3 -0.2 0.9 1 -0.3 0.9 -1.2 1.6 -2 1.6 -1.5 0 -0.9 2.6 1.3 5.1 1.1 1.3 1.4 4.3 1.1 12.8 -0.2 6.8 0.1 11.2 0.7 11.5 0.6 0.2 -0.7 2.2 -2.9 4.4 -5.8 6.1 -6.8 5 -6.1 -7.2 0.4 -8.8 0.4 -9.7 -0.7 -6.9 -0.7 1.7 -1.6 3.5 -2 3.9 -0.5 0.4 -0.8 2.5 -0.8 4.6 0 2.8 -0.7 4.6 -2.5 6.4 -3.6 3.6 -3.2 10.4 0.6 10.4 1.6 0 1.5 0.6 -1.3 5.3 -1.7 2.8 -4.3 8.1 -5.9 11.7 -1.6 3.9 -3.4 6.6 -4.5 6.9 -1.2 0.2 -1.3 0.5 -0.5 1.1 0.9 0.5 0.6 0.9 -0.9 1.3 -2.1 0.6 -2.1 0.5 -1.9 -16.9z m9.9 -40.4 c0 -0.5 -0.7 -1 -1.5 -1 -0.8 0 -1.5 0.5 -1.5 1 0 0.6 0.7 1 1.5 1 0.8 0 1.5 -0.4 1.5 -1z m17.7 -4.5 c0.8 -2.2 -0.6 -3.3 -1.7 -1.5 -1.3 2 -1.2 3 0 3 0.6 0 1.3 -0.7 1.7 -1.5z"/>
  <path d="M227.8 395.9 c-1.2 -0.7 -1.4 -2.4 -1.1 -9.1 0.4 -7.2 1 -9.3 4.1 -15.3 l3.7 -7 0.3 4.5 c0.2 2.4 0.9 4.8 1.5 5.2 0.8 0.5 0.5 0.8 -0.8 0.9 -1.1 0 -1.4 0.3 -0.7 0.6 1.5 0.6 1.5 2.8 0 5.6 -0.7 1.2 -1.3 2.7 -1.4 3.2 -0.1 0.6 -1 3.5 -2.1 6.6 -1.5 4.6 -2.2 5.5 -3.5 4.8z"/>
  <path d="M271.6 257.9 c-4 -1.6 -10.6 -6.9 -10.6 -8.5 0 -0.2 0.9 -0.4 2 -0.4 1.1 0 2 -0.4 2 -0.9 0 -0.5 1.2 -1.2 2.8 -1.5 1.5 -0.4 3.5 -0.9 4.6 -1.2 1.7 -0.6 1.8 -0.2 1.1 4.6 -0.5 3.8 -0.4 5.1 0.4 4.6 0.6 -0.4 1.1 -2.7 1.1 -5.1 0 -4.6 1.7 -6.5 5.6 -6.5 1.4 0 1.5 0.8 0.9 6.7 -0.7 6.7 -2.1 10.4 -4 10.2 -0.5 -0.1 -3.2 -1 -5.9 -2z"/>
  <path d="M496.1 218.6 c-2.5 -2.7 -3 -4.1 -7.8 -25.1 -4.3 -18.9 -5.2 -35.7 -1.6 -32.2 0.3 0.4 2.4 8.7 4.5 18.4 3.4 15.8 4.6 21.5 7.8 36.6 0.9 4.6 0 5.4 -2.9 2.3z"/>
  <path d="M264.7 203.7 c-2.5 -0.8 -2.8 -1.3 -2.2 -3.6 0.4 -1.4 1.2 -5.8 1.8 -9.8 1 -6.5 1.3 -7.2 3.6 -7.6 4.1 -0.8 4.5 0.5 3.1 10 -1.6 10.8 -2.5 12.3 -6.3 11z"/>
  <path d="M255.5 200.3 c-3 -0.7 -4.5 -3.2 -4.5 -7.4 0 -2 0.6 -4.1 1.3 -4.6 1.4 -1.2 7.9 -3.5 8.4 -3 0.9 0.9 -1.1 15.7 -2.1 15.6 -0.6 -0.1 -2 -0.3 -3.1 -0.6z"/>
  <path d="M431.3 158.8 c0.2 -0.7 1.3 -3.7 2.3 -6.7 1.1 -3 3.3 -6.8 5 -8.5 3.3 -3.4 17.1 -10.6 20.2 -10.6 2.3 0 10.2 6.6 10.2 8.5 0 1.4 -11.7 7.4 -29.2 15.1 -8.5 3.8 -9.2 4 -8.5 2.2z"/>
  <path d="M142.4 148.8 c1.2 -17.1 2 -19.1 12.2 -27.5 6 -4.9 22.4 -16.3 23.6 -16.3 0.4 0 0.8 1.1 0.8 2.5 0 1.6 -0.6 2.5 -1.5 2.5 -0.8 0 -1.5 0.5 -1.5 1 0 0.6 -0.5 1 -1.1 1 -1.9 0 -3.8 3.3 -3.9 6.5 0 3 0 3 5 2.7 6.9 -0.5 6.5 1 -2 8.2 -3.8 3.3 -9.8 8.9 -13.2 12.5 -3.6 3.7 -7 6.4 -7.9 6.3 -0.9 -0.2 -3.4 1.5 -5.5 3.8 -2.1 2.2 -4.2 4 -4.7 4 -0.5 0 -0.6 -3.3 -0.3 -7.2z"/>
  <path d="M307.9 141.9 c-0.7 -1.3 -3 -4.7 -5.1 -7.6 -3.8 -5.2 -4.6 -8.5 -2.9 -11.2 0.8 -1.3 1.8 -1.2 7 0.4 6.9 2.1 7 2.3 5 13.1 -1.4 7.2 -2.3 8.4 -4 5.3z"/>
  <path d="M456.1 128.4 c-1.2 -1.5 -2.1 -3.2 -2.1 -3.8 0 -1.6 50.8 -10.6 59.8 -10.6 4.7 0 13.2 2.6 13.2 4.1 0 1 -0.3 1 -35.5 6.9 -16.5 2.8 -30.7 5.3 -31.6 5.6 -1.1 0.3 -2.5 -0.6 -3.8 -2.2z"/>
  <path d="M199 104.5 c0 -1.9 0.4 -3.5 1 -3.5 0.8 0 4 -5.1 4 -6.5 0 -0.3 -0.7 -0.5 -1.6 -0.5 -0.9 0 -1.4 -0.5 -1.2 -1.2 0.5 -1.4 15.2 -7.8 17.9 -7.8 2.9 0 2.5 5.1 -0.6 8 -1.8 1.7 -2.2 2.6 -1.3 3.1 0.7 0.4 1 1 0.8 1.2 -2.2 1.9 -16.8 10.7 -17.7 10.7 -0.8 0 -1.3 -1.4 -1.3 -3.5z"/>
  <path d="M277.3 106.3 c-8.3 -0.6 -6.4 -4 4.9 -9.2 5.6 -2.5 5.8 -2.5 5.8 -0.6 0 0.8 1.1 2.2 2.5 3.1 4.2 2.7 3.2 5.1 -2.5 6.3 -2.8 0.6 -5.2 1 -5.3 0.9 -0.1 -0.1 -2.6 -0.3 -5.4 -0.5z"/>
  <path d="M298 100.5 c0 -1.9 0.5 -3.5 1 -3.5 0.7 0 0.8 -1.3 0.5 -3.4 -0.6 -3.1 -0.5 -3.4 2.5 -4 6.9 -1.3 6.9 -1.3 6.7 5.9 -0.2 6.3 -0.3 6.5 -2.9 6.5 -1.5 0 -3.8 0.4 -5.2 1 -2.5 0.9 -2.6 0.8 -2.6 -2.5z"/>
 </g>
 <g fill="#caa24d">
  <path d="M201.5 565.8 c-9.4 -4.7 -24.6 -14.2 -25.6 -16 -0.5 -1 -1.3 -1.7 -1.7 -1.5 -0.4 0.2 -2 -1.2 -3.7 -3.1 -1.6 -2 -2.4 -3.3 -1.7 -2.8 0.8 0.5 1.2 -0.1 1.2 -2.1 0 -1.9 -0.3 -2.4 -0.9 -1.4 -2.2 3.4 -3.1 -24.4 -1.1 -33.6 1.1 -5 1.2 -5.2 3.6 -4.1 1.3 0.6 2.4 1.5 2.4 2 0 0.4 0.7 0.8 1.6 0.8 0.9 0 6.1 3.3 11.7 7.4 5.6 4 12.1 8.6 14.5 10.1 2.3 1.5 4 3 3.8 3.2 -0.2 0.3 0.4 1.3 1.5 2.4 1.6 1.6 1.9 3.6 2.1 11.7 0.5 22.7 0.4 24.5 -1.7 26.8 l-2 2.2 -4 -2z"/>
  <path d="M293 537 c0 -0.7 -0.3 -1 -0.6 -0.7 -1.2 1.1 -6.1 -3.2 -8.1 -7 -1.1 -2.1 -2.3 -5.3 -2.6 -7.1 -0.6 -3 -0.5 -3.2 0.9 -1.8 0.8 0.9 2.1 1.6 2.7 1.7 0.7 0 3.3 2.8 5.8 6.3 4.2 5.6 4.5 6.4 3.3 8.1 -0.9 1.2 -1.4 1.4 -1.4 0.5z"/>
  <path d="M299.2 510.3 c-1 -1.8 -1.5 -4.3 -2.7 -13 -0.4 -3.4 -0.2 -4.3 1 -4.3 2.6 0 4.2 5 3.8 11.9 -0.3 7.2 -0.7 8.1 -2.1 5.4z"/>
  <path d="M319.1 500.2 c-1.3 -2.4 -2.3 -11 -1.6 -13.3 0.8 -2.4 3.2 -2.5 3.8 -0.1 0.2 0.9 0.5 4.5 0.6 7.9 0.2 6.3 -1 8.8 -2.8 5.5z"/>
  <path d="M280.6 418.6 c-0.3 -1.2 -0.6 -4.4 -0.6 -7.3 0 -4.2 0.5 -5.7 2.5 -7.7 3.1 -3.1 3.2 -5.9 0.4 -9.8 -2.4 -3.3 -1.9 -4.9 0.7 -2.4 1 1.1 2 1.4 2.6 0.8 0.6 -0.6 -0.1 -2 -1.7 -3.6 -3.4 -3.4 -2.4 -4.8 1 -1.6 2.9 2.7 3.2 1.7 0.9 -2.8 -1.6 -3.3 -2.8 -4 -3.9 -2.2 -0.3 0.6 -1.2 1 -1.8 1 -0.9 0 -1.1 -5 -0.9 -19.7 0.3 -18.6 0.5 -20 2.7 -23.8 2.1 -3.6 11.2 -12.2 12 -11.4 0.3 0.4 0.8 39.8 0.5 43.2 -0.1 1 -1.1 2.2 -2.3 2.6 -1.3 0.5 -2.9 1.7 -3.7 2.7 -1.4 1.6 -1.3 1.6 0.7 0.3 3 -1.8 3.9 -0.5 1.9 2.6 -1.5 2.3 -2 2.4 -3.3 1.3 -1.5 -1.2 -1.5 -1.1 -0.4 1 1.3 2.5 3.1 2.9 3.1 0.8 0 -1.5 3.7 -3.2 4.7 -2.3 0.3 0.3 -0.5 1.4 -1.6 2.4 -2.6 2.2 -2.7 3.3 -0.2 3.3 1.7 0 1.8 0.7 1.5 7.3 -0.2 3.9 -0.6 8.4 -0.9 9.9 -0.2 1.6 0.1 2.8 0.8 3.1 0.8 0.3 0.7 1 -0.5 2.4 -1 1.1 -1.8 2.3 -1.8 2.8 0 0.4 -1.7 2.6 -3.8 4.9 -4.3 4.5 -7.7 5.4 -8.6 2.2z"/>
  <path d="M230.6 386.5 c-1.4 -1.5 -1.6 -2.9 -1.2 -7.6 0.6 -6.1 2.4 -11.2 3.6 -10.4 0.4 0.3 0.5 2.5 0.2 5.1 -0.3 3.1 -0.1 4.9 0.8 5.4 1 0.6 1 1.6 -0.2 5 -1.3 4.1 -1.5 4.2 -3.2 2.5z"/>
  <path d="M272.5 258 c-1.2 -0.4 -2.6 -2.4 -3.2 -4.4 -1 -3.3 -0.9 -3.9 1 -6 1.2 -1.3 3.7 -2.9 5.5 -3.5 l3.2 -1 -0.6 6.7 c-0.6 6.2 -1.7 9.3 -3.3 9.1 -0.3 0 -1.5 -0.4 -2.6 -0.9z"/>
  <path d="M496.4 218.9 c-1.7 -2.2 -10.6 -43.6 -11 -51.4 -0.3 -5.1 -0.2 -6.5 0.6 -5 0.8 1.7 6.7 28 11 49.2 1.4 6.7 1.1 9.4 -0.6 7.2z"/>
  <path d="M260.8 202.1 c-3.8 -1.6 -3.8 -1.6 -3.8 -7.7 0 -7 1.1 -8.7 6.4 -10.4 4.1 -1.3 6 -0.2 5.1 3 -0.2 0.8 -0.7 4 -1 7 -0.4 3 -1.2 6.4 -1.9 7.6 -1.1 2 -1.3 2 -4.8 0.5z"/>
  <path d="M434 152 c1.9 -3.7 3.3 -4.6 14.5 -10 6.8 -3.3 13.2 -6 14.3 -6 1 0 2.8 1 4 2.3 2.5 2.7 2.8 3.7 0.9 3.7 -0.7 0 -8.1 3.2 -16.5 7 -8.4 3.9 -16.1 7 -17.2 7 l-2 0 2 -4z"/>
  <path d="M305.7 138.5 c-2.1 -2.9 -3.5 -13.9 -1.9 -14.9 0.6 -0.4 2.3 -0.4 3.8 0 l2.7 0.7 -0.7 7.6 c-0.4 4.2 -1 7.9 -1.4 8.3 -0.4 0.3 -1.5 -0.4 -2.5 -1.7z"/>
  <path d="M167.6 120.8 c0.3 -4.6 0.9 -8.6 1.1 -9.1 1.8 -3.1 32.4 -20.7 36.1 -20.7 1.8 0 2.2 0.6 2.2 3.5 0 4.1 -2.4 9.5 -4.3 9.5 -0.8 0 -0.7 0.4 0.3 1 0.8 0.5 1.2 1.1 1 1.3 -0.3 0.2 -2.6 1.8 -5.2 3.6 -2.6 1.7 -8.1 5.8 -12.2 9.1 -4.8 3.8 -8.1 5.7 -9.1 5.4 -0.9 -0.4 -3.3 0.5 -5.5 2 -2.2 1.4 -4.2 2.6 -4.5 2.6 -0.4 0 -0.3 -3.7 0.1 -8.2z"/>
  <path d="M456 127.5 c-1.4 -1.7 -0.9 -2 5.5 -2.9 2.2 -0.3 6.3 -1 9 -1.5 21.9 -4.2 47.2 -8 50.2 -7.6 8.8 1.1 4.3 2.6 -19.2 6.5 -10.4 1.7 -23.6 4 -29.3 5.1 -12.4 2.3 -14.6 2.4 -16.2 0.4z"/>
  <path d="M287.5 102.7 c-1.7 -1.2 -2.5 -1.5 -2.1 -0.7 0.7 1.2 0.6 1.3 -0.4 0.3 -1 -1 -1.1 -2 -0.4 -4 0.7 -2.2 2.4 -3.3 8.7 -5.7 5.4 -2 8.1 -2.6 8.8 -1.9 1.5 1.5 1.6 8.6 0.2 9 -0.7 0.3 -1 1 -0.7 1.8 0.4 0.9 -1 1.6 -4.6 2.4 -6.4 1.4 -6 1.4 -9.5 -1.2z"/>
 </g>
</svg>